<?xml version="1.0" encoding="utf-8"?>
<!-- Generator: Adobe Illustrator 14.0.0, SVG Export Plug-In  -->
<!DOCTYPE svg PUBLIC "-//W3C//DTD SVG 1.1//EN" "http://www.w3.org/Graphics/SVG/1.1/DTD/svg11.dtd" [
	<!ENTITY ns_flows "http://ns.adobe.com/Flows/1.0/">
]>
<svg version="1.1"
	 xmlns="http://www.w3.org/2000/svg" xmlns:xlink="http://www.w3.org/1999/xlink" xmlns:a="http://ns.adobe.com/AdobeSVGViewerExtensions/3.0/"
	 x="0px" y="0px" width="125px" height="125px" viewBox="-0.521 1934.966 125 125" enable-background="new -0.521 1934.966 125 125"
	 xml:space="preserve">
<defs>
</defs>
<rect x="93.487" y="1880.498" display="none" fill="#FFFFFF" width="397.894" height="387.892"/>
<rect x="92.97" y="1879.999" display="none" fill="none" stroke="#787878" stroke-width="0.0646" stroke-miterlimit="10" width="398.908" height="388.896"/>
<g display="none">
	<defs>
		<path id="SVGID_2_" d="M956.254,12366.721c-1.657,0-2.986-1.34-2.986-3v-38.992c0-1.664,1.329-3.004,2.986-3.004h144.96
			c1.662,0,3.006,1.34,3.006,3.004v38.992c0,1.66-1.344,3-3.006,3H956.254"/>
	</defs>
	<clipPath id="SVGID_4_" display="inline">
		<use xlink:href="#SVGID_2_"  display="none" overflow="visible"/>
	</clipPath>
	<g clip-path="url(#SVGID_4_)">
		<defs>
			<rect id="SVGID_3_" x="92.49" width="8947.064" height="12761.611"/>
		</defs>
		<clipPath id="SVGID_5_" display="inline">
			<use xlink:href="#SVGID_3_"  display="none" overflow="visible"/>
		</clipPath>
	</g>
</g>
<path fill="#28406F" d="M61.976,2059.45C27.263,2059.45,0,2032.176,0,1997.462c0-34.705,27.263-61.98,61.976-61.98
	c34.715,0,61.982,27.275,61.982,61.98C123.958,2032.176,96.691,2059.45,61.976,2059.45"/>
<path fill="#FFFFFF" d="M38.877,1970.104c0,0-23.164,7.211-24.941,10.903c-1.778,3.691-3.573,5.113-2.825,8.407
	c0.749,3.292,2.321,4.939,2.62,5.762s0.537,1.023,0.567,1.934c0.031,0.911-0.052,6.074,0.476,7.347s-0.408,4.117-0.838,4.865
	s-0.719,3.142-0.719,3.142l0.084,1.423c0,0-2.789,1.646-2.863,2.62c-0.075,0.973-0.405,3.52,2.267,5.353
	c2.672,1.832,6.789,2.281,6.789,2.281s52.004,0.228,52.683-2.281s2.026-5.428,1.352-5.877c-0.673-0.45-3.368-2.096-3.368-2.096
	s1.048-2.021,0.749-3.892c-0.3-1.871-2.129-3.966-2.129-3.966s1.081-2.482,0.932-4.572c-0.149-2.089-0.341-4.946-0.341-4.946
	s3.484-6.048,3.559-7.321c0.075-1.273-2.13-8.496-3.834-10.272c-1.704-1.777-10.535-5.07-13.903-5.969
	C51.824,1972.05,40.457,1969.6,38.877,1970.104z"/>
<path fill="#E38029" d="M27.533,2002.845c-1.042-0.776-1.865-1.389-3.63-1.389c-1.765,0-2.588,0.613-3.63,1.389
	c-0.535,0.398-1.131,0.839-1.875,1.205c0.143,0.019,0.286,0.032,0.434,0.032h10.637C28.696,2003.71,28.082,2003.255,27.533,2002.845
	z"/>
<path fill="#E38029" d="M45.655,2002.845c-1.042-0.776-1.864-1.389-3.629-1.389c-1.765,0-2.588,0.613-3.629,1.389
	c-0.55,0.41-1.164,0.865-1.937,1.237h11.132C46.818,2003.71,46.205,2003.255,45.655,2002.845z"/>
<path fill="#E38029" d="M60.147,2001.456c-1.765,0-2.588,0.613-3.63,1.389c-0.549,0.41-1.163,0.865-1.936,1.237h10.635
	c0.146,0,0.29-0.013,0.431-0.032c-0.743-0.366-1.337-0.807-1.872-1.205C62.735,2002.069,61.913,2001.456,60.147,2001.456z"/>
<path fill="#80B187" d="M65.217,1997.39h-43.37c-1.68,0-3.067,1.299-3.276,2.922c-0.034,0.025-0.068,0.07-0.101,0.095
	c1.188-0.885,2.667-1.977,5.432-1.977c2.765,0,4.244,1.107,5.432,1.993c1.042,0.776,1.864,1.394,3.63,1.394
	c1.765,0,2.587-0.613,3.629-1.39c1.188-0.885,2.666-1.986,5.432-1.986s4.244,1.102,5.432,1.987c1.042,0.777,1.864,1.39,3.629,1.39
	s2.587-0.613,3.629-1.39c1.188-0.885,2.666-1.987,5.432-1.987c2.765,0,4.243,1.102,5.431,1.987c0.861,0.643,1.575,1.172,2.792,1.336
	c0.098-0.312,0.151-0.685,0.151-1.028C68.522,1998.914,67.04,1997.39,65.217,1997.39z"/>
<path fill="#C2593F" d="M67.612,2007.292c0.062,0.024,0.122,0.054,0.183,0.083C67.734,2007.346,67.675,2007.317,67.612,2007.292z"/>
<path fill="#C2593F" d="M68.054,2007.516c0.06,0.038,0.12,0.076,0.177,0.118C68.174,2007.592,68.115,2007.553,68.054,2007.516z"/>
<path fill="#C2593F" d="M68.779,2008.171c0.046,0.06,0.097,0.115,0.138,0.179C68.875,2008.286,68.826,2008.23,68.779,2008.171z"/>
<path fill="#C2593F" d="M69.095,2008.677c0.048,0.101,0.086,0.205,0.122,0.311C69.181,2008.881,69.143,2008.777,69.095,2008.677z"/>
<path fill="#C2593F" d="M67.128,2007.149c0.057,0.011,0.109,0.03,0.164,0.043C67.237,2007.178,67.185,2007.161,67.128,2007.149z"/>
<path fill="#C2593F" d="M68.607,2007.962c-0.051-0.054-0.107-0.102-0.163-0.152C68.5,2007.861,68.556,2007.909,68.607,2007.962z"/>
<path fill="#C2593F" d="M14.774,2010.539c-0.014-0.055-0.032-0.107-0.043-0.165C14.742,2010.432,14.76,2010.483,14.774,2010.539z"/>
<path fill="#C2593F" d="M16.57,2012.463c-0.109-0.037-0.216-0.076-0.318-0.125C16.354,2012.387,16.461,2012.426,16.57,2012.463z"/>
<path fill="#C2593F" d="M15.931,2012.163c-0.063-0.041-0.119-0.092-0.18-0.138C15.812,2012.071,15.868,2012.122,15.931,2012.163z"/>
<path fill="#C2593F" d="M69.279,2009.048c-0.212-0.052-0.432-0.227-0.659-0.227H19.448c-1.521,0-2.76,1.381-2.76,2.903
	c0,0.228,0.031,0.527,0.083,0.739c0.214,0.053,0.435,0.17,0.667,0.17H66.61c1.521,0,2.76-1.318,2.76-2.84
	C69.37,2009.562,69.333,2009.262,69.279,2009.048z"/>
<path fill="#C2593F" d="M15.392,2011.69c0.05,0.056,0.099,0.111,0.153,0.164C15.49,2011.802,15.441,2011.746,15.392,2011.69z"/>
<path fill="#C2593F" d="M14.956,2011.042c-0.028-0.06-0.058-0.121-0.083-0.183C14.898,2010.921,14.928,2010.981,14.956,2011.042z"/>
<path fill="#C2593F" d="M15.216,2011.478c-0.042-0.058-0.082-0.117-0.12-0.178C15.135,2011.361,15.174,2011.42,15.216,2011.478z"/>
<path fill="#F1C84B" d="M68.76,2015.641H18.303c-3.178,0-3.416,0.77-3.416,2.118c0,2.323,1.533,4.1,3.416,4.1H68.76
	c1.883,0,3.416-1.776,3.416-4.1C72.176,2016.41,71.938,2015.641,68.76,2015.641z"/>
<path fill="#F1C84B" d="M13.217,1992.963c0.028,0.029,0.055,0.061,0.084,0.09C13.271,1993.024,13.245,1992.993,13.217,1992.963z"/>
<path fill="#F1C84B" d="M64.56,1978.074c0.1,0.066,0.196,0.132,0.294,0.198C64.756,1978.206,64.66,1978.14,64.56,1978.074z"/>
<path fill="#F1C84B" d="M11.99,1990.68c-0.011-0.051-0.021-0.102-0.031-0.153C11.969,1990.578,11.979,1990.629,11.99,1990.68z"/>
<path fill="#F1C84B" d="M11.912,1990.222c-0.006-0.046-0.013-0.093-0.017-0.14C11.899,1990.129,11.907,1990.176,11.912,1990.222z"/>
<path fill="#F1C84B" d="M68.25,1981.062c-0.075-0.075-0.146-0.153-0.223-0.229C68.104,1980.908,68.175,1980.985,68.25,1981.062z"/>
<path fill="#F1C84B" d="M68.672,1981.502c0.094,0.102,0.183,0.205,0.272,0.308C68.854,1981.707,68.766,1981.604,68.672,1981.502z"/>
<path fill="#F1C84B" d="M66.27,1979.299c0.108,0.084,0.217,0.17,0.322,0.256C66.486,1979.469,66.378,1979.384,66.27,1979.299z"/>
<path fill="#F1C84B" d="M12.105,1991.108c-0.015-0.046-0.027-0.093-0.041-0.14C12.078,1991.016,12.091,1991.062,12.105,1991.108z"/>
<path fill="#F1C84B" d="M67.071,1979.959c0.094,0.081,0.191,0.161,0.282,0.245C67.262,1980.12,67.165,1980.04,67.071,1979.959z"/>
<path fill="#F1C84B" d="M65.437,1978.675c0.112,0.08,0.221,0.162,0.33,0.242C65.658,1978.836,65.549,1978.754,65.437,1978.675z"/>
<path fill="#F1C84B" d="M14.091,1993.686c-0.052-0.035-0.104-0.069-0.155-0.104C13.987,1993.617,14.039,1993.651,14.091,1993.686z"
	/>
<path fill="#F1C84B" d="M12.255,1991.513c-0.007-0.018-0.013-0.035-0.021-0.053C12.242,1991.478,12.248,1991.496,12.255,1991.513z"
	/>
<path fill="#F1C84B" d="M14.847,1994.085c-0.05-0.021-0.098-0.045-0.147-0.068C14.749,1994.04,14.797,1994.065,14.847,1994.085z"/>
<path fill="#F1C84B" d="M69.138,1982.038c-0.763-0.588-1.591-1.154-2.487-1.69c-5.749-3.45-13.424-5.349-21.611-5.349
	c-8.187,0-15.862,1.899-21.611,5.349c-5.507,3.304-8.541,7.615-8.541,12.14c0,0.61,0.115,1.058,0.323,1.595
	c0.469,0.151,0.968,0.099,1.486,0.099h50.655c2.66,0,4.824-2.027,4.824-4.688C72.176,1986.834,71.121,1984.388,69.138,1982.038z
	 M25.993,1988.165c-0.279,0.279-0.67,0.44-1.066,0.44s-0.784-0.161-1.065-0.44c-0.281-0.282-0.442-0.669-0.442-1.067
	c0-0.396,0.161-0.784,0.442-1.066c0.282-0.281,0.669-0.44,1.065-0.44c0.396,0,0.787,0.159,1.066,0.44
	c0.281,0.282,0.441,0.67,0.441,1.066C26.435,1987.496,26.274,1987.883,25.993,1988.165z M34.988,1980.566
	c-0.279,0.279-0.667,0.44-1.065,0.44c-0.396,0-0.784-0.161-1.065-0.44c-0.281-0.282-0.442-0.669-0.442-1.067
	c0-0.396,0.161-0.786,0.442-1.065c0.279-0.282,0.669-0.443,1.065-0.443c0.397,0,0.786,0.162,1.065,0.443
	c0.281,0.279,0.442,0.669,0.442,1.065C35.43,1979.897,35.269,1980.285,34.988,1980.566z M43.091,1988.165
	c-0.282,0.279-0.671,0.44-1.068,0.44c-0.396,0-0.783-0.161-1.065-0.44c-0.281-0.282-0.442-0.669-0.442-1.067
	c0-0.396,0.161-0.784,0.442-1.066c0.281-0.281,0.669-0.44,1.065-0.44c0.396,0,0.786,0.159,1.068,0.44
	c0.279,0.282,0.44,0.67,0.44,1.066C43.531,1987.496,43.37,1987.883,43.091,1988.165z M51.19,1980.566
	c-0.28,0.279-0.667,0.44-1.066,0.44c-0.396,0-0.784-0.161-1.065-0.44c-0.281-0.282-0.442-0.669-0.442-1.067
	c0-0.396,0.161-0.786,0.442-1.065c0.281-0.282,0.67-0.443,1.065-0.443c0.398,0,0.786,0.162,1.066,0.443
	c0.282,0.279,0.442,0.669,0.442,1.065C51.632,1979.897,51.472,1980.285,51.19,1980.566z M60.185,1988.165
	c-0.279,0.279-0.667,0.44-1.065,0.44c-0.396,0-0.784-0.161-1.065-0.44c-0.281-0.282-0.442-0.669-0.442-1.067
	c0-0.396,0.161-0.784,0.442-1.066c0.281-0.281,0.669-0.44,1.065-0.44c0.398,0,0.786,0.159,1.065,0.44
	c0.281,0.282,0.442,0.67,0.442,1.066C60.627,1987.496,60.466,1987.883,60.185,1988.165z"/>
<path fill="#F1C84B" d="M14.461,1993.903c-0.056-0.029-0.109-0.061-0.164-0.092C14.352,1993.842,14.406,1993.874,14.461,1993.903z"
	/>
<path fill="#F1C84B" d="M12.511,1992.02c-0.024-0.042-0.049-0.083-0.072-0.126C12.461,1991.937,12.487,1991.978,12.511,1992.02z"/>
<path fill="#F1C84B" d="M12.751,1992.399c-0.032-0.045-0.063-0.091-0.094-0.138C12.688,1992.308,12.719,1992.354,12.751,1992.399z"
	/>
<path fill="#F1C84B" d="M13.73,1993.428c-0.043-0.034-0.088-0.067-0.13-0.103C13.643,1993.361,13.687,1993.394,13.73,1993.428z"/>
<path fill="#F1C84B" d="M13.014,1992.74c-0.035-0.042-0.069-0.085-0.103-0.128C12.945,1992.655,12.979,1992.698,13.014,1992.74z"/>
<path fill="#3F2D20" d="M24.927,1985.591c-0.396,0-0.784,0.159-1.065,0.44c-0.281,0.282-0.442,0.67-0.442,1.066
	c0,0.398,0.161,0.786,0.442,1.067c0.282,0.279,0.669,0.44,1.065,0.44s0.787-0.161,1.066-0.44c0.281-0.282,0.441-0.669,0.441-1.067
	c0-0.396-0.161-0.784-0.441-1.066C25.713,1985.75,25.323,1985.591,24.927,1985.591z"/>
<path fill="#3F2D20" d="M42.023,1985.591c-0.396,0-0.783,0.159-1.065,0.44c-0.281,0.282-0.442,0.67-0.442,1.066
	c0,0.398,0.161,0.786,0.442,1.067c0.282,0.279,0.669,0.44,1.065,0.44c0.396,0,0.786-0.161,1.068-0.44
	c0.279-0.282,0.44-0.669,0.44-1.067c0-0.396-0.161-0.784-0.44-1.066C42.809,1985.75,42.419,1985.591,42.023,1985.591z"/>
<path fill="#3F2D20" d="M59.12,1985.591c-0.396,0-0.784,0.159-1.065,0.44c-0.281,0.282-0.442,0.67-0.442,1.066
	c0,0.398,0.161,0.786,0.442,1.067c0.281,0.279,0.669,0.44,1.065,0.44c0.398,0,0.786-0.161,1.065-0.44
	c0.281-0.282,0.442-0.669,0.442-1.067c0-0.396-0.161-0.784-0.442-1.066C59.906,1985.75,59.518,1985.591,59.12,1985.591z"/>
<path fill="#3F2D20" d="M33.923,1977.991c-0.396,0-0.786,0.161-1.065,0.442c-0.281,0.279-0.442,0.669-0.442,1.065
	c0,0.398,0.161,0.786,0.442,1.067c0.281,0.279,0.669,0.44,1.065,0.44c0.397,0,0.786-0.161,1.065-0.44
	c0.281-0.282,0.442-0.669,0.442-1.067c0-0.396-0.161-0.786-0.442-1.065C34.709,1978.152,34.32,1977.991,33.923,1977.991z"/>
<path fill="#3F2D20" d="M50.124,1977.991c-0.396,0-0.784,0.161-1.065,0.442c-0.281,0.279-0.442,0.669-0.442,1.065
	c0,0.398,0.161,0.786,0.442,1.067c0.282,0.279,0.67,0.44,1.065,0.44c0.398,0,0.786-0.161,1.066-0.44
	c0.282-0.282,0.442-0.669,0.442-1.067c0-0.396-0.161-0.786-0.442-1.065C50.91,1978.152,50.522,1977.991,50.124,1977.991z"/>
<path fill="#3F2D20" d="M71.514,2012.898c0.551-0.885,0.871-1.926,0.871-3.042c0-1.986-1.009-3.743-2.541-4.781
	c1.049-1.129,1.693-2.639,1.693-4.299c0-1.449-0.491-2.785-1.315-3.853c2.906-1.148,4.969-3.983,4.969-7.293
	c0-5.624-3.553-10.854-10.005-14.725c-6.21-3.726-14.437-5.777-23.162-5.777c-8.726,0-16.952,2.051-23.163,5.777
	c-6.452,3.871-10.005,9.101-10.005,14.725c0,3.31,2.062,6.146,4.969,7.293c-0.824,1.067-1.315,2.402-1.315,3.853
	c0,1.66,0.645,3.169,1.694,4.297c-1.532,1.039-2.542,2.796-2.542,4.783c0,1.116,0.321,2.157,0.871,3.042
	c-1.8,0.464-3.677,1.698-3.677,4.965c0,3.985,2.885,7.227,6.431,7.227H68.76c3.546,0,6.431-3.242,6.431-7.227
	C75.191,2014.596,73.314,2013.363,71.514,2012.898z M68.76,2022.076H15.288c-1.884,0-3.416-1.89-3.416-4.212
	c0-1.348,0.237-2.232,3.416-2.232H68.76c3.178,0,3.416,0.884,3.416,2.232C72.176,2020.186,70.644,2022.076,68.76,2022.076z
	 M65.217,2004.082H54.582c0.772-0.372,1.387-0.827,1.936-1.237c1.042-0.776,1.865-1.389,3.63-1.389s2.587,0.613,3.629,1.389
	c0.534,0.398,1.129,0.839,1.872,1.206C65.507,2004.069,65.363,2004.082,65.217,2004.082z M36.459,2004.082
	c0.773-0.372,1.387-0.827,1.937-1.237c1.042-0.776,1.865-1.389,3.629-1.389c1.765,0,2.588,0.613,3.629,1.389
	c0.55,0.41,1.164,0.865,1.937,1.237H36.459z M18.832,2004.082c-0.148,0-0.292-0.013-0.434-0.032c0.744-0.366,1.34-0.807,1.875-1.205
	c1.042-0.776,1.865-1.389,3.63-1.389c1.766,0,2.588,0.613,3.63,1.389c0.549,0.41,1.164,0.865,1.937,1.237H18.832L18.832,2004.082z
	 M68.371,2001.764c-1.218-0.164-1.931-0.693-2.792-1.336c-1.188-0.885-2.667-1.987-5.431-1.987c-2.766,0-4.244,1.102-5.432,1.987
	c-1.042,0.777-1.864,1.39-3.629,1.39s-2.587-0.613-3.629-1.39c-1.188-0.885-2.666-1.987-5.432-1.987s-4.244,1.102-5.432,1.987
	c-1.042,0.777-1.864,1.39-3.629,1.39c-1.766,0-2.588-0.613-3.63-1.39c-1.188-0.885-2.667-1.987-5.432-1.987
	s-4.244,1.102-5.432,1.987c-0.861,0.643-1.575,1.172-2.793,1.336c-0.098-0.312-0.151-0.644-0.151-0.987
	c0-1.823,1.483-3.305,3.306-3.305h46.386c1.822,0,3.306,1.482,3.306,3.305C68.522,2001.12,68.469,2001.452,68.371,2001.764z
	 M67.352,1994.455H16.696c-2.66,0-4.824-2.164-4.824-4.825c0-4.523,3.033-8.834,8.541-12.139c5.749-3.449,13.423-5.349,21.611-5.349
	c8.187,0,15.862,1.9,21.611,5.349c5.508,3.305,8.541,7.616,8.541,12.139C72.176,1992.291,70.012,1994.455,67.352,1994.455z
	 M17.438,2007.097H66.61c1.522,0,2.76,1.237,2.76,2.759s-1.238,2.76-2.76,2.76H17.438c-1.521,0-2.759-1.238-2.759-2.76
	S15.917,2007.097,17.438,2007.097z"/>
<rect x="87.801" y="1968.172" fill="#A44919" width="9.49" height="4.08"/>
<path fill="#EB7E21" d="M89.205,2004.613l-0.198,5.121c-1.248-0.234-2.425-0.727-3.468-1.452L89.205,2004.613z"/>
<path fill="#EB7E21" d="M92.431,2004.878l3.401,3.401c-1.078,0.751-2.297,1.251-3.591,1.474L92.431,2004.878z"/>
<path fill="#EB7E21" d="M94.714,2002.589l4.872-0.19c-0.221,1.268-0.709,2.498-1.47,3.595L94.714,2002.589z"/>
<path fill="#EB7E21" d="M99.562,1999.165l-5.11,0.201l3.665-3.669C98.851,1996.758,99.332,1997.941,99.562,1999.165z"/>
<path fill="#3F2D20" d="M108.258,1992.715v28.872c0,1.117-0.905,2.02-2.02,2.02H78.854c-1.116,0-2.021-0.903-2.021-2.02v-28.872
	c0-1.665,0.697-3.967,1.62-5.352l4.366-6.551c0.484-0.725,0.941-2.237,0.941-3.11v-11.548c0-1.117,0.906-2.021,2.021-2.021h13.53
	c1.115,0,2.021,0.904,2.021,2.021v11.548c0,0.873,0.457,2.385,0.941,3.11l4.365,6.551
	C107.562,1988.75,108.258,1991.051,108.258,1992.715z M104.218,2019.567v-26.853c0-0.874-0.459-2.385-0.941-3.11l-4.365-6.55
	c-0.925-1.386-1.62-3.689-1.62-5.353v-2.217h-9.49v2.217c0,1.664-0.697,3.965-1.62,5.351l-4.366,6.552
	c-0.484,0.725-0.94,2.237-0.94,3.11v26.853L104.218,2019.567L104.218,2019.567z M97.291,1972.252v-4.08h-9.49v4.08H97.291z"/>
<path fill="#E9A943" d="M104.218,1992.715v26.853H80.875v-26.853c0-0.874,0.457-2.385,0.941-3.11l4.366-6.552
	c0.923-1.386,1.62-3.687,1.62-5.351v-2.217h9.49v2.217c0,1.664,0.695,3.967,1.62,5.353l4.365,6.55
	C103.759,1990.33,104.218,1991.841,104.218,1992.715z M99.361,2009.525c4.784-4.786,4.784-12.576,0-17.361
	c-0.302-0.301-0.715-0.472-1.144-0.472c-0.428,0-0.839,0.171-1.143,0.472L82.01,2007.24c-0.63,0.631-0.63,1.655,0,2.286
	c2.317,2.318,5.399,3.596,8.676,3.596C93.965,2013.122,97.045,2011.844,99.361,2009.525z"/>
<path fill="#3F2D20" d="M99.361,1992.164c4.784,4.786,4.784,12.575,0,17.361c-2.316,2.319-5.396,3.597-8.675,3.597
	c-3.277,0-6.359-1.278-8.676-3.597c-0.63-0.63-0.63-1.654,0-2.285l15.064-15.076c0.304-0.303,0.715-0.472,1.143-0.472
	C98.646,1991.692,99.059,1991.863,99.361,1992.164z M99.586,2002.398l-4.872,0.19l3.402,3.404
	C98.877,2004.896,99.366,2003.666,99.586,2002.398z M94.452,1999.365l5.11-0.201c-0.23-1.223-0.71-2.407-1.446-3.469
	L94.452,1999.365z M95.832,2008.28l-3.401-3.401l-0.19,4.875C93.534,2009.531,94.754,2009.031,95.832,2008.28z M89.007,2009.733
	l0.198-5.121l-3.667,3.669C86.582,2009.007,87.759,2009.499,89.007,2009.733z"/>
</svg>
