<?xml version="1.0" encoding="utf-8"?>
<!-- Generator: Adobe Illustrator 14.0.0, SVG Export Plug-In  -->
<!DOCTYPE svg PUBLIC "-//W3C//DTD SVG 1.1//EN" "http://www.w3.org/Graphics/SVG/1.1/DTD/svg11.dtd" [
	<!ENTITY ns_flows "http://ns.adobe.com/Flows/1.0/">
]>
<svg version="1.1"
	 xmlns="http://www.w3.org/2000/svg" xmlns:xlink="http://www.w3.org/1999/xlink" xmlns:a="http://ns.adobe.com/AdobeSVGViewerExtensions/3.0/"
	 x="0px" y="0px" width="50px" height="50px" viewBox="795.38 390.253 50 50" enable-background="new 795.38 390.253 50 50"
	 xml:space="preserve">
<defs>
</defs>
<circle fill="#E6D1A0" cx="820.38" cy="415.253" r="23"/>
<path fill="#DFAD39" d="M842.805,410.149l-13.525-8.838v15.708h-16.172v12.723l12.206,7.976
	c10.331-2.26,18.066-11.456,18.066-22.465C843.381,413.498,843.178,411.791,842.805,410.149z"/>
<path fill="#28406F" d="M820.505,398.767c-9.031,0-16.352,7.321-16.352,16.352c0,9.031,7.321,16.352,16.352,16.352
	c9.031,0,16.352-7.321,16.352-16.352C836.857,406.087,829.536,398.767,820.505,398.767z M820.505,428.302
	c-7.28,0-13.183-5.902-13.183-13.184c0-7.281,5.902-13.183,13.183-13.183c7.281,0,13.183,5.902,13.183,13.183
	C833.688,422.399,827.787,428.302,820.505,428.302z"/>
<path fill="#000412" d="M820.506,398.767v3.168c7.28,0,13.182,5.902,13.182,13.183c0,7.281-5.901,13.183-13.182,13.184v3.168
	c9.031,0,16.351-7.321,16.351-16.352C836.857,406.087,829.537,398.767,820.506,398.767z"/>
<path fill="#C6B0A9" d="M820.505,401.935c-7.28,0-13.183,5.902-13.183,13.183c0,7.281,5.902,13.184,13.183,13.184
	c7.281,0,13.183-5.902,13.183-13.184C833.688,407.837,827.787,401.935,820.505,401.935z"/>
<path fill="#FFFFE9" d="M820.505,403.203c-6.581,0-11.915,5.334-11.915,11.916c0,6.581,5.334,11.916,11.915,11.916
	s11.915-5.335,11.915-11.916C832.42,408.537,827.086,403.203,820.505,403.203z"/>
<path fill="#E6E9E9" d="M820.505,403.203c-0.02,0-0.039,0.001-0.059,0.001v23.829c0.02,0,0.04,0.001,0.059,0.001
	c6.581,0,11.915-5.335,11.915-11.916C832.42,408.537,827.086,403.203,820.505,403.203z"/>
<path fill="#375D70" d="M820.905,428.235c0,0.224-0.181,0.405-0.404,0.405l0,0c-0.223,0-0.404-0.182-0.404-0.405v-2.245
	c0-0.224,0.181-0.405,0.404-0.405l0,0c0.223,0,0.404,0.182,0.404,0.405V428.235z"/>
<path fill="#000412" d="M820.506,425.585v3.053c0.22-0.002,0.398-0.181,0.398-0.403v-2.245
	C820.905,425.768,820.727,425.589,820.506,425.585z"/>
<path fill="#002237" d="M809.597,414.572c0.223,0,0.404,0.181,0.404,0.405l0,0c0,0.222-0.182,0.403-0.404,0.403h-2.247
	c-0.223,0-0.404-0.181-0.404-0.403l0,0c0-0.224,0.181-0.405,0.404-0.405H809.597z"/>
<path fill="#000412" d="M833.63,414.572c0.224,0,0.404,0.181,0.404,0.405l0,0c0,0.222-0.181,0.403-0.404,0.403h-2.246
	c-0.223,0-0.404-0.181-0.404-0.403l0,0c0-0.224,0.181-0.405,0.404-0.405H833.63z"/>
<path fill="#375D70" d="M820.905,404.247c0,0.224-0.181,0.405-0.404,0.405l0,0c-0.223,0-0.404-0.181-0.404-0.405v-2.246
	c0-0.224,0.181-0.405,0.404-0.405l0,0c0.223,0,0.404,0.181,0.404,0.405V404.247z"/>
<path fill="#000412" d="M820.506,401.597v3.053c0.22-0.003,0.398-0.182,0.398-0.403v-2.246
	C820.905,401.78,820.727,401.601,820.506,401.597z"/>
<path fill="#D13D2C" d="M826.494,422.096l-5.905-6.83l-0.408,0.352l5.905,6.831c0.098,0.112,0.268,0.125,0.38,0.028
	S826.592,422.209,826.494,422.096z"/>
<circle fill="#002237" cx="820.506" cy="415.028" r="1.392"/>
<path fill="#002237" d="M830.082,414.707h-9.029v0.538h9.029c0.149,0,0.27-0.12,0.27-0.269
	C830.351,414.827,830.23,414.707,830.082,414.707z"/>
<path fill="#002237" d="M821.084,414.685c0,0.322-0.261,0.584-0.584,0.584l0,0c-0.322,0-0.584-0.262-0.584-0.584v-8.656
	c0-0.321,0.262-0.583,0.584-0.583l0,0c0.323,0,0.584,0.262,0.584,0.583V414.685z"/>
<path fill="#000412" d="M821.45,415.027c0,0.522-0.423,0.945-0.943,0.945c-0.522,0-0.944-0.422-0.944-0.945
	c0-0.52,0.422-0.942,0.944-0.942C821.027,414.085,821.45,414.508,821.45,415.027z"/>
<g>
	<defs>
		<rect id="SVGID_5_" y="81.516" width="731.978" height="238.137"/>
	</defs>
	<clipPath id="SVGID_7_">
		<use xlink:href="#SVGID_5_"  overflow="visible"/>
	</clipPath>
	<g clip-path="url(#SVGID_7_)">
		<path fill="#2E86BC" d="M784.778,274.681l14.688-236.537c0.777-12.774-10.096-24-24.146-24.856L562.374,0.054
			c-14.014-0.868-26.173,8.872-27.009,21.643L520.7,258.206c-0.792,12.832,10.087,23.993,24.146,24.834l212.894,13.248
			C771.802,297.183,783.937,287.454,784.778,274.681L784.778,274.681z"/>
		<g opacity="0.3">
			<g>
				<path fill="#FFFFFF" d="M736.167,126.138c-6.638,0.185-13.285,0.338-19.955,0.379l1.999,133.521
					c8.405-1.329,16.673-2.993,24.861-5.154c7.048-1.898,12.968-6.18,12.5-13.138c-2.491-34.439-4.983-68.951-7.491-103.431
					C747.547,131.357,742.248,125.98,736.167,126.138z"/>
				<path fill="#FFFFFF" d="M661.165,124.592l-8.487,137.302c19.41,1.674,38.741,1.521,57.62-0.772l-0.788-134.684
					C693.429,126.352,677.275,125.719,661.165,124.592z"/>
				<path fill="#FFFFFF" d="M626.793,121.291l-14.899,134.39c10.908,2.383,21.893,4.202,32.862,5.44l9.771-137.06
					C645.269,123.315,636.008,122.414,626.793,121.291z"/>
				<path fill="#FFFFFF" d="M592.01,116.3c-5.982-0.988-12.021,3.673-13.497,10.451c-7.068,33.848-14.196,67.703-21.282,101.522
					c-1.49,6.79,3.628,12.177,10.559,14.672c11.749,4.27,23.735,7.871,35.842,10.825l16.084-133.347
					C610.446,119.242,601.227,117.872,592.01,116.3z"/>
			</g>
			<path fill="#FFFFFF" d="M627.767,112.111c4.205-20.37,4.844-87.11,37.161-84.907c34.992,2.342,38.899,69.449,40.327,90.143
				l8.499,0.618c-0.88-26.076-0.92-73.895-42.29-76.688c-38.213-2.626-47.847,44.491-52.269,70.27L627.767,112.111z"/>
		</g>
	</g>
	<g clip-path="url(#SVGID_7_)">
		<path fill="#EEE019" d="M182.56,369.801l-22.835-38.998c-1.217-2.115-4.124-2.739-6.448-1.365l-35.115,20.543
			c-2.33,1.362-3.207,4.189-1.967,6.303l22.812,39c1.251,2.104,4.159,2.729,6.483,1.367l35.104-20.556
			C182.906,374.732,183.799,371.915,182.56,369.801L182.56,369.801z"/>
		<g opacity="0.3">
			<g>
				<path fill="#FFFFFF" d="M160.167,349.782c-1.199,0.698-2.413,1.399-3.634,2.069l13.748,24.302
					c1.424-1.089,2.76-2.224,4.059-3.447c1.117-1.058,1.753-2.435,0.958-3.646c-3.909-6.08-7.805-12.157-11.72-18.241
					C162.771,349.622,161.253,349.153,160.167,349.782z"/>
				<path fill="#FFFFFF" d="M146.254,357.018l12.195,26.021c3.742-1.634,7.277-3.596,10.495-5.917l-13.622-24.614
					C152.347,354.117,149.317,355.604,146.254,357.018z"/>
				<path fill="#FFFFFF" d="M139.631,359.861l10.721,26.146c2.248-0.654,4.445-1.436,6.571-2.31l-11.935-26.099
					C143.213,358.38,141.425,359.137,139.631,359.861z"/>
				<path fill="#FFFFFF" d="M132.737,362.437c-1.192,0.426-1.831,1.875-1.418,3.269c2.087,6.923,4.167,13.828,6.26,20.748
					c0.418,1.402,1.902,1.876,3.411,1.64c2.594-0.406,5.147-0.948,7.659-1.614l-10.425-26.068
					C136.425,361.125,134.587,361.794,132.737,362.437z"/>
			</g>
			<path fill="#FFFFFF" d="M138.863,358.078c-1.249-4.166-7.831-16.469-1.694-19.286c6.67-3.076,14.114,8.825,16.453,12.488
				l1.583-0.74c-2.749-4.697-7.547-13.462-15.398-9.818c-7.292,3.343-4.332,12.958-2.559,18.1L138.863,358.078z"/>
		</g>
	</g>
	<g clip-path="url(#SVGID_7_)">
		<path fill="#EEE019" d="M376.202,326.29l-22.836-38.999c-1.222-2.109-4.129-2.733-6.447-1.37l-35.115,20.555
			c-2.319,1.357-3.213,4.187-1.961,6.304l22.807,38.997c1.257,2.109,4.159,2.725,6.489,1.374l35.098-20.567
			C376.554,331.221,377.441,328.409,376.202,326.29L376.202,326.29z"/>
		<g opacity="0.3">
			<g>
				<path fill="#FFFFFF" d="M353.809,306.266c-1.199,0.705-2.407,1.406-3.628,2.082l13.742,24.288
					c1.422-1.079,2.772-2.216,4.047-3.435c1.129-1.058,1.764-2.437,0.967-3.654c-3.895-6.082-7.802-12.157-11.717-18.236
					C356.408,306.106,354.896,305.64,353.809,306.266z"/>
				<path fill="#FFFFFF" d="M339.908,313.5l12.187,26.037c3.739-1.628,7.279-3.6,10.498-5.918l-13.628-24.621
					C345.99,310.603,342.962,312.091,339.908,313.5z"/>
				<path fill="#FFFFFF" d="M333.273,316.352L344,342.494c2.251-0.66,4.431-1.44,6.56-2.306l-11.935-26.104
					C336.854,314.872,335.073,315.634,333.273,316.352z"/>
				<path fill="#FFFFFF" d="M326.392,318.938c-1.204,0.415-1.849,1.865-1.43,3.261c2.087,6.902,4.173,13.821,6.271,20.746
					c0.401,1.397,1.896,1.878,3.396,1.629c2.588-0.395,5.144-0.94,7.662-1.609l-10.414-26.054
					C330.073,317.616,328.236,318.29,326.392,318.938z"/>
			</g>
			<path fill="#FFFFFF" d="M332.509,314.564c-1.24-4.17-7.834-16.464-1.685-19.282c6.658-3.073,14.102,8.828,16.441,12.49
				l1.594-0.742c-2.749-4.703-7.558-13.465-15.415-9.821c-7.28,3.344-4.314,12.954-2.559,18.111L332.509,314.564z"/>
		</g>
	</g>
	<g clip-path="url(#SVGID_7_)">
		<path fill="#BCD532" d="M502.518,366.876l-13.021-69.248c-0.721-3.757-4.642-6.196-8.766-5.409l-62.355,11.704
			c-4.127,0.774-6.908,4.475-6.222,8.208l13.018,69.275c0.692,3.756,4.672,6.184,8.763,5.403l62.371-11.711
			C500.414,374.321,503.215,370.623,502.518,366.876L502.518,366.876z"/>
		<g opacity="0.3">
			<g>
				<path fill="#FFFFFF" d="M474.38,328.157c-1.823,0.489-3.634,0.964-5.459,1.407l9.351,36.478
					c2.201-0.913,4.376-1.927,6.459-3.068c1.817-0.961,3.147-2.547,2.564-4.408c-2.945-9.282-5.905-18.575-8.857-27.862
					C477.838,328.842,476.019,327.706,474.38,328.157z"/>
				<path fill="#FFFFFF" d="M453.716,332.67l6.717,38.189c5.422-0.802,10.704-2.145,15.748-4.014l-9.1-36.836
					C462.661,331.058,458.199,331.925,453.716,332.67z"/>
				<path fill="#FFFFFF" d="M444.062,334.05l4.786,37.791c3.142-0.052,6.278-0.274,9.357-0.677l-6.353-38.195
					C449.276,333.394,446.682,333.723,444.062,334.05z"/>
				<path fill="#FFFFFF" d="M434.206,334.971c-1.682,0.138-3.036,1.797-2.986,3.757c0.267,9.747,0.566,19.477,0.833,29.215
					c0.047,1.949,1.826,3.104,3.871,3.325c3.526,0.372,7.031,0.579,10.51,0.591l-4.364-37.594
					C439.461,334.557,436.838,334.785,434.206,334.971z"/>
			</g>
			<path fill="#FFFFFF" d="M443.737,331.448c-0.185-5.832-4.417-24.167,4.578-25.691c9.738-1.66,15.236,16.436,16.989,22.033
				l2.377-0.404c-1.953-7.073-5.12-20.15-16.644-18.201c-10.644,1.798-10.178,15.342-9.7,22.694L443.737,331.448z"/>
		</g>
	</g>
	<g clip-path="url(#SVGID_7_)">
		<path fill="#2E86BC" d="M407.666,265.586l-13.009-69.257c-0.718-3.749-4.662-6.187-8.771-5.407l-62.355,11.708
			c-4.136,0.764-6.92,4.476-6.222,8.206l13.018,69.266c0.692,3.762,4.666,6.198,8.763,5.417l62.374-11.729
			C405.568,273.038,408.37,269.332,407.666,265.586L407.666,265.586z"/>
		<g opacity="0.3">
			<g>
				<path fill="#FFFFFF" d="M379.528,226.856c-1.829,0.5-3.634,0.965-5.454,1.41l9.339,36.476c2.213-0.902,4.382-1.922,6.465-3.052
					c1.817-0.973,3.16-2.561,2.564-4.402c-2.948-9.297-5.911-18.587-8.85-27.881C382.993,227.549,381.166,226.412,379.528,226.856z"
					/>
				<path fill="#FFFFFF" d="M358.864,231.38l6.718,38.201c5.422-0.818,10.703-2.169,15.752-4.03l-9.097-36.842
					C367.803,229.756,363.349,230.639,358.864,231.38z"/>
				<path fill="#FFFFFF" d="M349.216,232.748l4.786,37.804c3.147-0.064,6.278-0.285,9.353-0.673l-6.349-38.196
					C354.412,232.092,351.837,232.434,349.216,232.748z"/>
				<path fill="#FFFFFF" d="M339.357,233.672c-1.69,0.142-3.033,1.802-2.995,3.757c0.284,9.741,0.571,19.477,0.844,29.234
					c0.042,1.939,1.826,3.091,3.878,3.316c3.514,0.363,7.03,0.575,10.504,0.585l-4.364-37.585
					C344.621,233.264,341.992,233.496,339.357,233.672z"/>
			</g>
			<path fill="#FFFFFF" d="M348.891,230.153c-0.196-5.83-4.416-24.162,4.569-25.694c9.742-1.674,15.239,16.444,16.992,22.05
				l2.374-0.422c-1.943-7.069-5.111-20.151-16.635-18.208c-10.65,1.808-10.184,15.354-9.707,22.708L348.891,230.153z"/>
		</g>
	</g>
	<g clip-path="url(#SVGID_7_)">
		<path fill="#BCD532" d="M353.536,341.17l-28.861-88.232c-1.565-4.748-7.125-7.262-12.379-5.53l-79.416,25.953
			c-5.231,1.736-8.271,7.044-6.708,11.815l28.875,88.224c1.568,4.767,7.125,7.258,12.368,5.54l79.428-25.975
			C352.092,351.223,355.102,345.929,353.536,341.17L353.536,341.17z"/>
		<g opacity="0.3">
			<g>
				<path fill="#FFFFFF" d="M311.786,297.561c-2.227,0.995-4.461,1.961-6.75,2.895l19.307,45.125c2.67-1.593,5.26-3.334,7.732-5.208
					c2.136-1.625,3.554-3.915,2.417-6.186c-5.655-11.37-11.292-22.761-16.948-34.146
					C316.419,297.763,313.817,296.662,311.786,297.561z"/>
				<path fill="#FFFFFF" d="M286.071,307.499l16.246,47.866c6.852-2.128,13.405-4.894,19.48-8.299l-19.002-45.675
					C297.273,303.622,291.704,305.62,286.071,307.499z"/>
				<path fill="#FFFFFF" d="M273.921,311.165l13.683,47.771c4.021-0.709,8.004-1.619,11.902-2.714l-15.755-47.974
					C280.492,309.273,277.242,310.256,273.921,311.165z"/>
				<path fill="#FFFFFF" d="M261.41,314.306c-2.172,0.51-3.573,2.944-3.139,5.447c2.312,12.49,4.618,24.978,6.896,37.484
					c0.475,2.537,2.975,3.623,5.677,3.516c4.596-0.199,9.152-0.633,13.663-1.32L271.4,311.854
					C268.08,312.742,264.757,313.547,261.41,314.306z"/>
			</g>
			<path fill="#FFFFFF" d="M272.972,307.89c-1.404-7.499-10.495-30.277,0.803-34.042c12.221-4.058,22.9,18.188,26.282,25.04
				l2.96-0.994c-3.934-8.735-10.616-24.972-25.064-20.155c-13.358,4.426-10.064,21.805-7.971,31.166L272.972,307.89z"/>
		</g>
	</g>
	<g clip-path="url(#SVGID_7_)">
		<path fill="#BCD532" d="M697.836,352.447l-28.858-88.228c-1.562-4.748-7.131-7.263-12.379-5.533l-79.41,25.962
			c-5.237,1.726-8.282,7.038-6.711,11.808l28.873,88.224c1.56,4.776,7.125,7.26,12.368,5.538l79.421-25.975
			C696.392,362.499,699.398,357.209,697.836,352.447L697.836,352.447z"/>
		<g opacity="0.3">
			<g>
				<path fill="#FFFFFF" d="M656.083,308.84c-2.227,0.996-4.455,1.965-6.743,2.894l19.305,45.132
					c2.678-1.604,5.257-3.341,7.728-5.213c2.137-1.621,3.555-3.922,2.416-6.188c-5.657-11.37-11.29-22.765-16.934-34.149
					C660.714,309.044,658.12,307.947,656.083,308.84z"/>
				<path fill="#FFFFFF" d="M630.369,318.775l16.245,47.865c6.855-2.118,13.405-4.889,19.486-8.289l-19.014-45.677
					C641.576,314.896,635.999,316.903,630.369,318.775z"/>
				<path fill="#FFFFFF" d="M618.225,322.448l13.674,47.762c4.024-0.703,8.013-1.614,11.904-2.708l-15.75-47.976
					C624.784,320.561,621.539,321.538,618.225,322.448z"/>
				<path fill="#FFFFFF" d="M605.705,325.584c-2.164,0.515-3.57,2.945-3.13,5.448c2.312,12.488,4.61,24.978,6.894,37.481
					c0.472,2.534,2.978,3.625,5.67,3.516c4.599-0.196,9.155-0.631,13.671-1.312l-13.108-47.579
					C612.375,324.025,609.051,324.828,605.705,325.584z"/>
			</g>
			<path fill="#FFFFFF" d="M617.27,319.168c-1.404-7.489-10.501-30.277,0.799-34.04c12.229-4.058,22.904,18.181,26.297,25.04
				l2.959-0.993c-3.947-8.735-10.62-24.972-25.077-20.158c-13.355,4.43-10.055,21.811-7.966,31.16L617.27,319.168z"/>
		</g>
	</g>
	<g clip-path="url(#SVGID_7_)">
		<path fill="#DDAB39" d="M129.603,397.717l-24.741-48.67c-1.331-2.633-4.783-3.582-7.678-2.111l-43.799,22.252
			c-2.905,1.467-4.186,4.825-2.843,7.467l24.711,48.67c1.354,2.632,4.803,3.564,7.702,2.1l43.799-22.245
			C129.655,403.704,130.924,400.356,129.603,397.717L129.603,397.717z"/>
		<g opacity="0.3">
			<g>
				<path fill="#FFFFFF" d="M103.789,374.905c-1.421,0.861-2.881,1.696-4.35,2.513l16.726,29.033
					c1.688-1.305,3.285-2.697,4.814-4.155c1.325-1.289,2.09-2.948,1.146-4.392c-4.745-7.272-9.483-14.518-14.229-21.77
					C106.937,374.667,105.09,374.146,103.789,374.905z"/>
				<path fill="#FFFFFF" d="M87.157,383.715l14.858,31.139c4.481-2.009,8.693-4.416,12.562-7.192l-16.585-29.438
					C94.442,380.173,90.841,382.004,87.157,383.715z"/>
				<path fill="#FFFFFF" d="M79.229,387.191l13.112,31.264c2.669-0.822,5.311-1.748,7.854-2.813l-14.544-31.23
					C83.514,385.38,81.404,386.307,79.229,387.191z"/>
				<path fill="#FFFFFF" d="M71.003,390.348c-1.418,0.501-2.192,2.254-1.685,3.915c2.567,8.294,5.128,16.566,7.698,24.844
					c0.504,1.671,2.286,2.213,4.098,1.921c3.1-0.512,6.168-1.166,9.182-1.988L77.588,387.86
					C75.396,388.719,73.207,389.56,71.003,390.348z"/>
			</g>
			<path fill="#FFFFFF" d="M78.336,385.057c-1.565-4.995-9.569-19.687-2.225-23.148c7.951-3.741,17.001,10.483,19.834,14.86
				l1.932-0.913c-3.383-5.61-9.211-16.079-18.61-11.659c-8.698,4.101-5.067,15.604-2.904,21.768L78.336,385.057z"/>
		</g>
	</g>
	<g clip-path="url(#SVGID_7_)">
		<path fill="#DDAB39" d="M453.273,311.013l-32.642-64.25c-1.762-3.482-6.322-4.724-10.141-2.778l-57.826,29.371
			c-3.81,1.942-5.519,6.372-3.748,9.848l32.622,64.234c1.799,3.487,6.356,4.719,10.172,2.788l57.808-29.358
			C453.356,318.905,455.035,314.5,453.273,311.013L453.273,311.013z"/>
		<g opacity="0.3">
			<g>
				<path fill="#FFFFFF" d="M419.207,280.898c-1.873,1.139-3.804,2.243-5.718,3.319l22.057,38.322
					c2.224-1.725,4.343-3.566,6.357-5.484c1.752-1.7,2.757-3.883,1.514-5.81c-6.277-9.591-12.522-19.163-18.776-28.734
					C423.363,280.578,420.924,279.882,419.207,280.898z"/>
				<path fill="#FFFFFF" d="M397.262,292.522l19.616,41.109c5.894-2.652,11.464-5.83,16.555-9.499l-21.865-38.842
					C406.866,287.851,402.122,290.256,397.262,292.522z"/>
				<path fill="#FFFFFF" d="M386.794,297.109l17.309,41.278c3.523-1.097,6.999-2.315,10.365-3.707l-19.196-41.234
					C392.465,294.715,389.651,295.947,386.794,297.109z"/>
				<path fill="#FFFFFF" d="M375.927,301.27c-1.864,0.66-2.884,2.989-2.216,5.182c3.394,10.935,6.773,21.865,10.161,32.787
					c0.668,2.217,3.012,2.921,5.424,2.545c4.077-0.667,8.124-1.549,12.091-2.634L384.627,298
					C381.741,299.128,378.84,300.237,375.927,301.27z"/>
			</g>
			<path fill="#FFFFFF" d="M385.607,294.29c-2.072-6.593-12.626-25.981-2.932-30.55c10.501-4.926,22.44,13.842,26.178,19.616
				l2.552-1.21c-4.455-7.383-12.15-21.228-24.57-15.376c-11.477,5.4-6.68,20.583-3.831,28.715L385.607,294.29z"/>
		</g>
	</g>
	<g clip-path="url(#SVGID_7_)">
		<path fill="#DDAB39" d="M54.679,346.796l-11.233-22.104c-0.597-1.19-2.174-1.624-3.493-0.952L20.08,333.839
			c-1.316,0.66-1.903,2.19-1.298,3.386l11.227,22.089c0.61,1.192,2.177,1.613,3.494,0.956l19.873-10.098
			C54.693,349.507,55.28,347.982,54.679,346.796L54.679,346.796z"/>
		<g opacity="0.3">
			<g>
				<path fill="#FFFFFF" d="M42.953,336.424c-0.647,0.401-1.307,0.774-1.966,1.155l7.582,13.168c0.765-0.59,1.5-1.221,2.195-1.885
					c0.595-0.582,0.94-1.34,0.51-2.003c-2.148-3.296-4.308-6.585-6.453-9.87C44.381,336.323,43.542,336.08,42.953,336.424z"/>
				<path fill="#FFFFFF" d="M35.403,340.424l6.752,14.135c2.025-0.899,3.939-1.993,5.692-3.26l-7.52-13.364
					C38.707,338.821,37.072,339.651,35.403,340.424z"/>
				<path fill="#FFFFFF" d="M31.805,341.999l5.958,14.198c1.205-0.374,2.397-0.793,3.564-1.28l-6.609-14.171
					C33.76,341.188,32.793,341.6,31.805,341.999z"/>
				<path fill="#FFFFFF" d="M28.08,343.429c-0.651,0.241-1.002,1.035-0.762,1.792c1.151,3.755,2.312,7.519,3.49,11.272
					c0.22,0.757,1.035,1.009,1.858,0.876c1.401-0.23,2.801-0.533,4.165-0.909l-5.765-14.149
					C30.067,342.7,29.074,343.086,28.08,343.429z"/>
			</g>
			<path fill="#FFFFFF" d="M31.4,341.04c-0.709-2.274-4.343-8.938-1.005-10.506c3.608-1.709,7.706,4.759,9.003,6.746l0.868-0.418
				c-1.524-2.544-4.17-7.306-8.443-5.288c-3.951,1.859-2.295,7.076-1.316,9.877L31.4,341.04z"/>
		</g>
	</g>
	<g clip-path="url(#SVGID_7_)">
		<path fill="#DDAB39" d="M152.184,267.542l3.215-19.785c0.181-1.067-0.643-2.098-1.817-2.292l-17.792-2.9
			c-1.172-0.183-2.286,0.542-2.456,1.603l-3.221,19.776c-0.173,1.062,0.642,2.099,1.82,2.286l17.803,2.902
			C150.908,269.326,152.016,268.615,152.184,267.542L152.184,267.542z"/>
		<g opacity="0.3">
			<g>
				<path fill="#FFFFFF" d="M149.234,254.861c-0.562-0.03-1.14-0.08-1.703-0.142l-0.932,11.493c0.739-0.045,1.457-0.117,2.168-0.241
					c0.634-0.1,1.17-0.42,1.185-1.023c0.076-2.983,0.146-5.958,0.217-8.935C150.185,255.408,149.762,254.901,149.234,254.861z"/>
				<path fill="#FFFFFF" d="M142.813,254.113l-1.86,11.725c1.658,0.301,3.32,0.442,4.961,0.404l1.046-11.569
					C145.574,254.526,144.186,254.345,142.813,254.113z"/>
				<path fill="#FFFFFF" d="M139.895,253.547l-2.383,11.422c0.912,0.297,1.838,0.542,2.767,0.732l1.981-11.682
					C141.46,253.875,140.677,253.723,139.895,253.547z"/>
				<path fill="#FFFFFF" d="M136.944,252.838c-0.489-0.132-1.055,0.211-1.234,0.783c-0.888,2.852-1.779,5.701-2.667,8.551
					c-0.184,0.57,0.208,1.066,0.789,1.333c0.967,0.465,1.972,0.869,2.983,1.218l2.477-11.302
					C138.508,253.237,137.729,253.049,136.944,252.838z"/>
			</g>
			<path fill="#FFFFFF" d="M140.05,252.77c0.527-1.71,1.132-7.44,3.887-6.989c2.98,0.489,2.775,6.281,2.731,8.08l0.712,0.114
				c0.146-2.249,0.536-6.342-2.995-6.925c-3.256-0.537-4.475,3.438-5.059,5.592L140.05,252.77z"/>
		</g>
	</g>
	<g clip-path="url(#SVGID_7_)">
		<path fill="#BCD532" d="M170.723,311.182l-16.331-35.229c-0.858-1.914-3.297-2.666-5.404-1.71l-31.707,14.692
			c-2.098,0.976-3.074,3.322-2.204,5.24l16.294,35.229c0.888,1.899,3.318,2.662,5.422,1.71l31.725-14.677
			C170.611,315.438,171.593,313.09,170.723,311.182L170.723,311.182z"/>
		<g opacity="0.3">
			<g>
				<path fill="#FFFFFF" d="M152.971,294.721c-0.941,0.519-1.867,1.027-2.825,1.52l10.07,18.893c1.099-0.795,2.16-1.645,3.168-2.552
					c0.885-0.79,1.412-1.831,0.827-2.792c-2.884-4.726-5.759-9.453-8.649-14.177C154.999,294.641,153.824,294.26,152.971,294.721z"
					/>
				<path fill="#FFFFFF" d="M142.175,300.011l8.827,20.195c2.908-1.182,5.636-2.625,8.163-4.333l-9.973-19.152
					C146.885,297.894,144.555,299.006,142.175,300.011z"/>
				<path fill="#FFFFFF" d="M137.028,302.056l7.719,20.25c1.723-0.468,3.412-0.999,5.074-1.631l-8.646-20.258
					C139.801,300.987,138.418,301.544,137.028,302.056z"/>
				<path fill="#FFFFFF" d="M131.695,303.89c-0.923,0.312-1.448,1.413-1.149,2.494c1.457,5.339,2.933,10.674,4.391,16.022
					c0.295,1.084,1.436,1.454,2.587,1.335c1.999-0.27,3.971-0.64,5.889-1.097l-7.453-20.205
					C134.54,302.958,133.134,303.442,131.695,303.89z"/>
			</g>
			<path fill="#FFFFFF" d="M136.504,300.667c-0.903-3.201-5.694-12.754-0.944-14.831c5.161-2.206,10.633,7.052,12.353,9.912
				l1.254-0.547c-2.04-3.64-5.536-10.454-11.635-7.826c-5.647,2.409-3.573,9.863-2.318,13.843L136.504,300.667z"/>
		</g>
	</g>
	<g clip-path="url(#SVGID_7_)">
		<path fill="#BCD532" d="M105.772,308.55l-8.402-18.147c-0.445-0.98-1.703-1.353-2.764-0.887l-16.342,7.585
			c-1.082,0.484-1.585,1.696-1.116,2.684l8.378,18.139c0.451,0.964,1.715,1.368,2.787,0.87l16.327-7.554
			C105.726,310.737,106.229,309.526,105.772,308.55L105.772,308.55z"/>
		<g opacity="0.3">
			<g>
				<path fill="#FFFFFF" d="M96.626,300.081c-0.463,0.264-0.961,0.523-1.431,0.782l5.179,9.719c0.56-0.413,1.119-0.843,1.635-1.322
					c0.448-0.407,0.703-0.94,0.404-1.447c-1.488-2.43-2.958-4.85-4.428-7.304C97.675,300.038,97.071,299.84,96.626,300.081z"/>
				<path fill="#FFFFFF" d="M91.075,302.79l4.561,10.395c1.474-0.611,2.898-1.354,4.19-2.225l-5.135-9.858
					C93.517,301.706,92.324,302.27,91.075,302.79z"/>
				<path fill="#FFFFFF" d="M88.438,303.857l3.969,10.395c0.885-0.219,1.764-0.501,2.619-0.837L90.574,303
					C89.851,303.292,89.153,303.581,88.438,303.857z"/>
				<path fill="#FFFFFF" d="M85.686,304.798c-0.466,0.133-0.733,0.722-0.592,1.271c0.759,2.745,1.51,5.492,2.254,8.249
					c0.155,0.552,0.732,0.75,1.348,0.691c1.017-0.149,2.014-0.33,3.033-0.577l-3.856-10.388
					C87.151,304.306,86.419,304.547,85.686,304.798z"/>
			</g>
			<path fill="#FFFFFF" d="M88.174,303.144c-0.479-1.659-2.952-6.591-0.487-7.646c2.644-1.123,5.458,3.643,6.354,5.106l0.645-0.276
				c-1.058-1.877-2.848-5.407-5.993-4.046c-2.89,1.258-1.843,5.07-1.187,7.132L88.174,303.144z"/>
		</g>
	</g>
	<g clip-path="url(#SVGID_7_)">
		<path fill="#2E86BC" d="M129.321,327.427l-8.786-22.428c-0.487-1.211-1.964-1.793-3.294-1.26l-20.21,7.925
			c-1.319,0.507-2.025,1.94-1.544,3.15l8.784,22.426c0.486,1.216,1.948,1.791,3.285,1.259l20.21-7.913
			C129.083,330.068,129.79,328.646,129.321,327.427L129.321,327.427z"/>
		<g opacity="0.3">
			<g>
				<path fill="#FFFFFF" d="M117.539,316.122c-0.554,0.242-1.157,0.503-1.702,0.724l5.026,11.431
					c0.662-0.434,1.328-0.871,1.949-1.36c0.537-0.421,0.886-1.011,0.595-1.585c-1.492-2.86-2.931-5.741-4.411-8.601
					C118.711,316.156,118.043,315.891,117.539,316.122z"/>
				<path fill="#FFFFFF" d="M111.027,318.706l4.273,12.106c1.714-0.568,3.368-1.31,4.915-2.172l-4.953-11.541
					C113.871,317.686,112.463,318.21,111.027,318.706z"/>
				<path fill="#FFFFFF" d="M107.959,319.676l3.604,12.075c1.044-0.2,2.037-0.435,3.019-0.739l-4.127-12.108
					C109.629,319.166,108.797,319.445,107.959,319.676z"/>
				<path fill="#FFFFFF" d="M104.797,320.501c-0.542,0.142-0.908,0.762-0.771,1.383c0.619,3.171,1.234,6.334,1.853,9.513
					c0.114,0.616,0.756,0.899,1.453,0.863c1.146-0.073,2.304-0.195,3.45-0.395l-3.461-12.024
					C106.479,320.095,105.647,320.314,104.797,320.501z"/>
			</g>
			<path fill="#FFFFFF" d="M107.712,318.845c-0.375-1.909-2.749-7.657,0.106-8.636c3.077-1.078,5.876,4.547,6.75,6.264l0.738-0.25
				c-1.008-2.201-2.758-6.298-6.409-5.055c-3.385,1.171-2.497,5.566-1.956,7.93L107.712,318.845z"/>
		</g>
	</g>
	<g clip-path="url(#SVGID_7_)">
		<path fill="#DDAB39" d="M223.783,346.987l-3.903-50.669c-0.217-2.728-2.852-4.806-5.856-4.561l-45.613,3.506
			c-3.001,0.24-5.295,2.673-5.096,5.419l3.895,50.659c0.199,2.741,2.869,4.789,5.858,4.546l45.625-3.494
			C221.69,352.157,223.982,349.73,223.783,346.987L223.783,346.987z"/>
		<g opacity="0.3">
			<g>
				<path fill="#FFFFFF" d="M208.948,317.523c-1.445,0.247-2.87,0.475-4.311,0.691l4.599,28.86c1.773-0.551,3.511-1.182,5.184-1.902
					c1.498-0.626,2.643-1.724,2.327-3.222c-1.612-7.387-3.227-14.776-4.845-22.153C211.573,318.294,210.237,317.31,208.948,317.523z
					"/>
				<path fill="#FFFFFF" d="M192.647,319.511l2.45,30.004c4.241-0.228,8.434-0.875,12.452-1.969l-4.357-29.123
					C199.681,318.914,196.182,319.258,192.647,319.511z"/>
				<path fill="#FFFFFF" d="M185.104,319.878l0.967,29.549c2.427,0.188,4.862,0.245,7.263,0.153l-2.136-29.958
					C189.177,319.744,187.138,319.845,185.104,319.878z"/>
				<path fill="#FFFFFF" d="M177.419,319.887c-1.304-0.027-2.476,1.16-2.576,2.677c-0.496,7.557-0.982,15.091-1.471,22.65
					c-0.1,1.521,1.187,2.514,2.758,2.842c2.682,0.554,5.372,0.961,8.074,1.221l-0.666-29.362
					C181.51,319.948,179.471,319.924,177.419,319.887z"/>
			</g>
			<path fill="#FFFFFF" d="M185.039,317.857c0.273-4.535-1.667-19.008,5.39-19.547c7.655-0.562,10.585,13.82,11.535,18.279
				l1.861-0.146c-1-5.615-2.488-15.97-11.541-15.274c-8.353,0.629-8.977,11.124-9.129,16.834L185.039,317.857z"/>
		</g>
	</g>
	<g clip-path="url(#SVGID_7_)">
		<path fill="#BCD532" d="M234.556,271.339l-18.349-39.635c-0.993-2.129-3.742-3-6.09-1.91l-35.669,16.511
			c-2.336,1.087-3.482,3.732-2.473,5.877l18.348,39.632c0.994,2.14,3.716,3.003,6.07,1.905l35.687-16.505
			C234.421,276.111,235.531,273.473,234.556,271.339L234.556,271.339z"/>
		<g opacity="0.3">
			<g>
				<path fill="#FFFFFF" d="M214.583,252.826c-1.049,0.59-2.101,1.144-3.167,1.688l11.307,21.258
					c1.251-0.896,2.444-1.857,3.569-2.876c0.982-0.883,1.568-2.047,0.921-3.128c-3.232-5.33-6.465-10.644-9.709-15.972
					C216.837,252.726,215.55,252.301,214.583,252.826z"/>
				<path fill="#FFFFFF" d="M202.433,258.761l9.953,22.701c3.248-1.318,6.345-2.942,9.173-4.876l-11.222-21.521
					C207.76,256.372,205.126,257.616,202.433,258.761z"/>
				<path fill="#FFFFFF" d="M196.647,261.064l8.678,22.772c1.946-0.537,3.86-1.124,5.724-1.844l-9.718-22.763
					C199.769,259.851,198.225,260.473,196.647,261.064z"/>
				<path fill="#FFFFFF" d="M190.666,263.143c-1.032,0.319-1.624,1.562-1.284,2.786c1.635,6,3.286,12.007,4.935,18.018
					c0.308,1.2,1.574,1.651,2.896,1.472c2.251-0.284,4.458-0.69,6.638-1.206l-8.411-22.701
					C193.875,262.084,192.284,262.613,190.666,263.143z"/>
			</g>
			<path fill="#FFFFFF" d="M196.067,259.502c-1.011-3.611-6.409-14.365-1.064-16.664c5.812-2.488,11.973,7.921,13.889,11.131
				l1.406-0.606c-2.26-4.089-6.195-11.77-13.07-8.807c-6.345,2.725-4.015,11.078-2.6,15.565L196.067,259.502z"/>
		</g>
	</g>
	<g clip-path="url(#SVGID_7_)">
		<path fill="#BCD532" d="M327.104,234.097l-18.336-39.633c-1.003-2.133-3.749-3.007-6.105-1.918l-35.66,16.516
			c-2.336,1.085-3.487,3.739-2.482,5.867l18.349,39.633c1.002,2.146,3.736,3.009,6.079,1.911l35.681-16.504
			C326.97,238.867,328.086,236.221,327.104,234.097L327.104,234.097z"/>
		<g opacity="0.3">
			<g>
				<path fill="#FFFFFF" d="M307.131,215.581c-1.055,0.595-2.104,1.138-3.167,1.696l11.312,21.252
					c1.257-0.909,2.435-1.85,3.56-2.879c0.988-0.885,1.589-2.051,0.93-3.127c-3.227-5.33-6.471-10.642-9.715-15.972
					C309.391,215.478,308.104,215.074,307.131,215.581z"/>
				<path fill="#FFFFFF" d="M294.993,221.513l9.935,22.706c3.247-1.313,6.345-2.947,9.185-4.88l-11.216-21.516
					C300.312,219.124,297.674,220.375,294.993,221.513z"/>
				<path fill="#FFFFFF" d="M289.196,223.812l8.692,22.778c1.929-0.528,3.851-1.126,5.714-1.836l-9.724-22.762
					C292.328,222.615,290.784,223.23,289.196,223.812z"/>
				<path fill="#FFFFFF" d="M283.217,225.903c-1.029,0.312-1.627,1.568-1.292,2.776c1.641,6.007,3.291,12.018,4.938,18.026
					c0.311,1.2,1.594,1.642,2.902,1.465c2.245-0.285,4.458-0.684,6.632-1.199l-8.408-22.708
					C286.417,224.832,284.835,225.365,283.217,225.903z"/>
			</g>
			<path fill="#FFFFFF" d="M288.621,222.256c-1.02-3.608-6.421-14.367-1.063-16.664c5.806-2.496,11.966,7.927,13.882,11.122
				l1.41-0.592c-2.254-4.097-6.198-11.779-13.076-8.819c-6.342,2.738-4.012,11.102-2.594,15.584L288.621,222.256z"/>
		</g>
	</g>
	<g clip-path="url(#SVGID_7_)">
		<path fill="#2E86BC" d="M252.125,353.686l-6.143-34.675c-0.325-1.891-2.301-3.122-4.358-2.754l-31.2,5.507
			c-2.066,0.382-3.479,2.214-3.16,4.09l6.12,34.678c0.346,1.881,2.31,3.101,4.37,2.744l31.218-5.521
			C251.012,357.408,252.451,355.549,252.125,353.686L252.125,353.686z"/>
		<g opacity="0.3">
			<g>
				<path fill="#FFFFFF" d="M240.106,335.581c-1.011,0.176-2.004,0.322-3.01,0.463l3.04,20.115c1.251-0.376,2.467-0.801,3.651-1.295
					c1.038-0.432,1.835-1.208,1.612-2.233c-1.079-5.164-2.177-10.314-3.244-15.459C241.944,336.131,241.013,335.416,240.106,335.581
					z"/>
				<path fill="#FFFFFF" d="M228.751,336.881l1.538,20.904c2.963-0.137,5.874-0.573,8.664-1.306l-2.861-20.305
					C233.645,336.487,231.215,336.723,228.751,336.881z"/>
				<path fill="#FFFFFF" d="M223.511,337.092l0.501,20.587c1.7,0.142,3.394,0.184,5.063,0.142l-1.336-20.874
					C226.326,337.02,224.908,337.069,223.511,337.092z"/>
				<path fill="#FFFFFF" d="M218.15,337.067c-0.912-0.042-1.747,0.79-1.803,1.851c-0.393,5.238-0.774,10.498-1.166,15.747
					c-0.074,1.052,0.812,1.774,1.925,1.993c1.855,0.402,3.734,0.707,5.607,0.902l-0.299-20.443
					C220.993,337.11,219.58,337.11,218.15,337.067z"/>
			</g>
			<path fill="#FFFFFF" d="M223.458,335.704c0.202-3.171-1.058-13.268,3.86-13.593c5.322-0.353,7.3,9.68,7.937,12.778l1.304-0.075
				c-0.677-3.917-1.656-11.144-7.975-10.708c-5.806,0.402-6.289,7.702-6.436,11.675L223.458,335.704z"/>
		</g>
	</g>
	<g clip-path="url(#SVGID_7_)">
		<path fill="#2E86BC" d="M270.237,246.688l-6.131-34.674c-0.333-1.887-2.304-3.126-4.37-2.752l-31.2,5.511
			c-2.051,0.381-3.479,2.218-3.153,4.084l6.125,34.679c0.342,1.881,2.3,3.104,4.358,2.754l31.223-5.534
			C269.132,250.412,270.568,248.556,270.237,246.688L270.237,246.688z"/>
		<g opacity="0.3">
			<g>
				<path fill="#FFFFFF" d="M258.225,228.581c-1,0.175-1.999,0.322-3.01,0.46l3.042,20.121c1.254-0.371,2.456-0.808,3.651-1.294
					c1.035-0.429,1.832-1.212,1.609-2.232c-1.091-5.167-2.175-10.32-3.238-15.462C260.059,229.141,259.133,228.426,258.225,228.581z
					"/>
				<path fill="#FFFFFF" d="M246.862,229.881l1.55,20.902c2.945-0.134,5.871-0.573,8.669-1.301l-2.86-20.306
					C251.759,229.501,249.326,229.723,246.862,229.881z"/>
				<path fill="#FFFFFF" d="M241.625,230.093l0.51,20.595c1.691,0.133,3.394,0.184,5.053,0.137l-1.334-20.875
					C244.444,230.026,243.031,230.067,241.625,230.093z"/>
				<path fill="#FFFFFF" d="M236.262,230.071c-0.9-0.039-1.741,0.794-1.806,1.854c-0.387,5.241-0.765,10.496-1.164,15.748
					c-0.073,1.051,0.814,1.772,1.929,1.996c1.863,0.401,3.739,0.697,5.615,0.887l-0.302-20.438
					C239.116,230.117,237.692,230.111,236.262,230.071z"/>
			</g>
			<path fill="#FFFFFF" d="M241.581,228.704c0.202-3.167-1.069-13.267,3.854-13.591c5.334-0.351,7.294,9.678,7.936,12.77
				l1.298-0.074c-0.68-3.911-1.653-11.121-7.957-10.689c-5.824,0.387-6.296,7.692-6.447,11.67L241.581,228.704z"/>
		</g>
	</g>
	<g clip-path="url(#SVGID_7_)">
		<path fill="#EEE019" d="M84.742,341.328l-13.783-27.113c-0.744-1.462-2.688-1.984-4.296-1.183l-24.393,12.406
			c-1.615,0.82-2.333,2.699-1.595,4.155l13.774,27.115c0.759,1.471,2.679,1.993,4.288,1.186l24.416-12.402
			C84.774,344.666,85.478,342.815,84.742,341.328L84.742,341.328z"/>
		<g opacity="0.3">
			<g>
				<path fill="#FFFFFF" d="M68.324,327.588c-0.627,0.454-1.269,0.918-1.891,1.368l9.065,12.641c0.709-0.677,1.41-1.392,2.037-2.128
					c0.555-0.663,0.833-1.48,0.326-2.098c-2.523-3.126-5.067-6.274-7.605-9.411C69.749,327.35,68.908,327.164,68.324,327.588z"/>
				<path fill="#FFFFFF" d="M61.036,332.426l8.321,13.711c1.966-1.131,3.801-2.432,5.448-3.892l-9.018-12.855
					C64.218,330.472,62.66,331.466,61.036,332.426z"/>
				<path fill="#FFFFFF" d="M57.521,334.398l7.503,13.843c1.208-0.489,2.38-1.046,3.508-1.626l-8.173-13.801
					C59.432,333.361,58.471,333.905,57.521,334.398z"/>
				<path fill="#FFFFFF" d="M53.861,336.24c-0.627,0.283-0.894,1.14-0.589,1.897c1.577,3.711,3.141,7.419,4.694,11.135
					c0.329,0.732,1.176,0.909,1.999,0.694c1.41-0.383,2.799-0.832,4.136-1.354l-7.31-13.825
					C55.831,335.288,54.852,335.779,53.861,336.24z"/>
			</g>
			<path fill="#FFFFFF" d="M57.006,333.456c-0.955-2.239-5.328-8.661-2.09-10.598c3.502-2.094,8.355,4.057,9.868,5.94l0.827-0.498
				c-1.812-2.437-4.985-7.007-9.126-4.534c-3.839,2.287-1.624,7.465-0.317,10.193L57.006,333.456z"/>
		</g>
	</g>
	<g clip-path="url(#SVGID_7_)">
		<path fill="#DDAB39" d="M563.945,262.135l-25.629-110.314c-1.368-5.982-7.883-9.602-14.451-8.106l-99.312,23.084
			c-6.55,1.516-10.779,7.667-9.396,13.617l25.614,110.32c1.4,5.97,7.918,9.61,14.46,8.082l99.292-23.082
			C561.087,274.249,565.346,268.102,563.945,262.135L563.945,262.135z"/>
		<g opacity="0.3">
			<g>
				<path fill="#FFFFFF" d="M521.371,202.195c-3.095,1.032-6.201,2.026-9.27,2.953l19.794,62.051
					c3.751-1.773,7.368-3.758,10.87-5.927c3.033-1.852,5.197-4.694,3.948-7.876c-5.999-15.743-12.042-31.485-18.059-47.217
					C527.405,203.032,524.129,201.263,521.371,202.195z"/>
				<path fill="#FFFFFF" d="M486.132,212.067l15.457,65.283c9.287-1.976,18.285-4.759,26.804-8.511l-19.436-62.727
					C501.407,208.356,493.825,210.323,486.132,212.067z"/>
				<path fill="#FFFFFF" d="M469.621,215.396l12.06,64.825c5.425-0.448,10.796-1.142,16.083-2.115l-14.803-65.334
					C478.533,213.732,474.069,214.628,469.621,215.396z"/>
				<path fill="#FFFFFF" d="M452.689,218.007c-2.915,0.375-5.066,3.389-4.823,6.784c1.498,16.782,2.933,33.577,4.407,50.377
					c0.288,3.37,3.423,5.181,7.04,5.342c6.058,0.322,12.191,0.313,18.203-0.05l-11.312-64.471
					C461.708,216.731,457.209,217.412,452.689,218.007z"/>
			</g>
			<path fill="#FFFFFF" d="M468.776,210.982c-0.908-10.084-10.075-41.349,5.302-44.9c16.658-3.825,28.015,26.925,31.611,36.384
				l4.023-0.896c-4.097-12.095-10.878-34.354-30.563-29.799c-18.183,4.161-16.037,27.544-14.437,40.135L468.776,210.982z"/>
		</g>
	</g>
	<g clip-path="url(#SVGID_7_)">
		<path fill="#EEE019" d="M587.2,342.922l-16.954-85.53c-0.912-4.62-5.812-7.569-10.914-6.58l-76.989,15.232
			c-5.052,1.028-8.502,5.653-7.561,10.253l16.916,85.532c0.909,4.608,5.832,7.603,10.944,6.554l76.974-15.216
			C584.694,352.192,588.094,347.538,587.2,342.922L587.2,342.922z"/>
		<g opacity="0.3">
			<g>
				<path fill="#FFFFFF" d="M556.536,294.239c-2.309,0.787-4.66,1.536-7.001,2.241l15.005,46.945c2.811-1.353,5.568-2.839,8.18-4.46
					c2.303-1.447,3.936-3.595,3.036-5.976c-4.589-11.901-9.128-23.814-13.695-35.702
					C561.135,294.87,558.664,293.516,556.536,294.239z"/>
				<path fill="#FFFFFF" d="M529.896,301.717l11.69,49.378c7.028-1.474,13.851-3.602,20.269-6.44l-14.659-47.448
					C541.467,298.894,535.717,300.403,529.896,301.717z"/>
				<path fill="#FFFFFF" d="M517.409,304.23l9.103,49.031c4.124-0.33,8.189-0.854,12.198-1.588l-11.229-49.435
					C524.126,302.991,520.788,303.655,517.409,304.23z"/>
				<path fill="#FFFFFF" d="M504.607,306.207c-2.215,0.267-3.836,2.584-3.649,5.128c1.128,12.694,2.219,25.389,3.353,38.107
					c0.205,2.554,2.576,3.906,5.296,4.065c4.624,0.216,9.193,0.212,13.771-0.029l-8.546-48.819
					C511.439,305.262,508.027,305.748,504.607,306.207z"/>
			</g>
			<path fill="#FFFFFF" d="M516.767,300.901c-0.715-7.655-7.628-31.275,4.036-33.947c12.593-2.932,21.16,20.334,23.876,27.474
				l3.062-0.687c-3.088-9.119-8.223-25.989-23.123-22.535c-13.777,3.176-12.125,20.875-10.908,30.405L516.767,300.901z"/>
		</g>
	</g>
	<g clip-path="url(#SVGID_7_)">
		<path fill="#EEE019" d="M461.919,220.032L443.69,128.13c-0.991-4.955-6.254-8.134-11.723-7.07l-82.709,16.376
			c-5.439,1.111-9.145,6.068-8.136,11.01l18.182,91.892c0.967,4.956,6.26,8.184,11.758,7.06l82.687-16.359
			C459.205,229.98,462.857,224.985,461.919,220.032L461.919,220.032z"/>
		<g opacity="0.3">
			<g>
				<path fill="#FFFFFF" d="M428.963,167.707c-2.488,0.86-5.008,1.674-7.541,2.422l16.131,50.444
					c3.027-1.449,5.991-3.056,8.804-4.796c2.461-1.568,4.214-3.86,3.256-6.419c-4.942-12.789-9.797-25.593-14.715-38.359
					C433.893,168.403,431.237,166.952,428.963,167.707z"/>
				<path fill="#FFFFFF" d="M400.333,175.754l12.561,53.052c7.555-1.589,14.882-3.874,21.774-6.925l-15.744-50.973
					C412.766,172.73,406.591,174.354,400.333,175.754z"/>
				<path fill="#FFFFFF" d="M386.922,178.464l9.777,52.69c4.44-0.367,8.801-0.927,13.109-1.728l-12.06-53.113
					C394.132,177.128,390.554,177.836,386.922,178.464z"/>
				<path fill="#FFFFFF" d="M373.178,180.58c-2.392,0.295-4.132,2.777-3.933,5.51c1.208,13.635,2.397,27.287,3.599,40.953
					c0.234,2.736,2.784,4.184,5.709,4.363c4.958,0.226,9.858,0.221,14.773-0.041l-9.179-52.451
					C380.504,179.562,376.841,180.099,373.178,180.58z"/>
			</g>
			<path fill="#FFFFFF" d="M386.228,174.878c-0.768-8.234-8.191-33.598,4.353-36.478c13.517-3.144,22.719,21.857,25.649,29.533
				l3.288-0.745c-3.321-9.806-8.845-27.927-24.85-24.207c-14.805,3.408-13.033,22.423-11.729,32.667L386.228,174.878z"/>
		</g>
	</g>
	<g clip-path="url(#SVGID_7_)">
		<path fill="#BCD532" d="M556.704,151.884l-31.461-92.09c-1.694-4.989-7.563-7.507-13.056-5.672l-82.877,28.334
			c-5.486,1.857-8.566,7.457-6.913,12.446l31.479,92.079c1.691,5.013,7.581,7.529,13.056,5.681l82.915-28.315
			C555.305,162.462,558.392,156.847,556.704,151.884L556.704,151.884z"/>
		<g opacity="0.3">
			<g>
				<path fill="#FFFFFF" d="M516.764,106.219c-2.497,1.028-4.95,2.077-7.456,3.009l20.149,49.75
					c2.972-1.706,5.837-3.553,8.581-5.538c2.386-1.744,3.986-4.223,2.778-6.728c-5.931-12.571-11.866-25.084-17.851-37.668
					C521.79,106.522,518.982,105.269,516.764,106.219z"/>
				<path fill="#FFFFFF" d="M488.445,116.517l16.775,52.702c7.5-2.199,14.721-5.049,21.459-8.695l-19.847-50.33
					C500.756,112.508,494.638,114.638,488.445,116.517z"/>
				<path fill="#FFFFFF" d="M475.102,120.29l13.938,52.529c4.446-0.708,8.775-1.618,13.062-2.756l-16.218-52.748
					C482.272,118.393,478.697,119.387,475.102,120.29z"/>
				<path fill="#FFFFFF" d="M461.333,123.496c-2.392,0.513-3.954,3.121-3.532,5.876c2.283,13.719,4.501,27.41,6.764,41.133
					c0.445,2.726,3.162,4.016,6.087,3.949c5.037-0.135,10.029-0.516,14.999-1.179l-13.338-52.263
					C468.648,121.931,465.002,122.732,461.333,123.496z"/>
			</g>
			<path fill="#FFFFFF" d="M474.108,116.701c-1.381-8.204-10.835-33.274,1.553-37.192c13.464-4.175,24.673,20.371,28.234,27.908
				l3.247-1.003c-4.104-9.625-11.069-27.539-26.956-22.563c-14.692,4.596-11.475,23.646-9.385,33.881L474.108,116.701z"/>
		</g>
	</g>
	<g clip-path="url(#SVGID_7_)">
		<path fill="#2E86BC" d="M181.537,284.071l3.227-18.321c0.17-0.982-0.574-1.96-1.662-2.15l-16.497-2.901
			c-1.096-0.186-2.119,0.46-2.301,1.463l-3.215,18.312c-0.181,0.994,0.575,1.955,1.653,2.132l16.503,2.917
			C180.338,285.704,181.355,285.067,181.537,284.071L181.537,284.071z"/>
		<g opacity="0.3">
			<g>
				<path fill="#FFFFFF" d="M178.841,272.901c-0.513-0.079-1.043-0.193-1.571-0.304l-2.127,10.54
					c0.694,0.035,1.369,0.051,2.055,0.011c0.577-0.026,1.131-0.265,1.199-0.816c0.392-2.743,0.791-5.495,1.178-8.252
					C179.652,273.522,179.33,273.007,178.841,272.901z"/>
				<path fill="#FFFFFF" d="M172.984,271.506l-3.023,10.666c1.495,0.462,3.019,0.761,4.542,0.909l2.248-10.599
					C175.482,272.206,174.22,271.884,172.984,271.506z"/>
				<path fill="#FFFFFF" d="M170.327,270.66l-3.455,10.313c0.818,0.377,1.641,0.703,2.485,0.993l3.104-10.615
					C171.745,271.149,171.042,270.912,170.327,270.66z"/>
				<path fill="#FFFFFF" d="M167.684,269.689c-0.454-0.19-0.999,0.083-1.228,0.598c-1.149,2.52-2.268,5.066-3.415,7.608
					c-0.24,0.507,0.083,1.016,0.578,1.325c0.856,0.541,1.735,1.024,2.631,1.456l3.535-10.204
					C169.081,270.23,168.366,269.971,167.684,269.689z"/>
			</g>
			<path fill="#FFFFFF" d="M170.57,269.962c0.671-1.533,1.855-6.764,4.358-6.038c2.705,0.79,1.887,6.117,1.632,7.77l0.668,0.189
				c0.372-2.063,1.181-5.817-2.019-6.749c-2.958-0.851-4.528,2.687-5.308,4.636L170.57,269.962z"/>
		</g>
	</g>
	<g clip-path="url(#SVGID_7_)">
		<path fill="#2E86BC" d="M68.251,318.011l3.227-18.325c0.171-0.982-0.58-1.961-1.67-2.157l-16.485-2.896
			c-1.093-0.191-2.116,0.457-2.304,1.456l-3.221,18.316c-0.182,0.993,0.581,1.951,1.655,2.134l16.503,2.914
			C67.046,319.637,68.069,318.999,68.251,318.011L68.251,318.011z"/>
		<g opacity="0.3">
			<g>
				<path fill="#FFFFFF" d="M65.555,306.83c-0.519-0.079-1.049-0.192-1.574-0.301l-2.125,10.538c0.691,0.042,1.365,0.05,2.046,0.015
					c0.585-0.023,1.131-0.267,1.201-0.82c0.393-2.739,0.795-5.498,1.181-8.255C66.367,307.458,66.039,306.936,65.555,306.83z"/>
				<path fill="#FFFFFF" d="M59.693,305.44l-3.019,10.666c1.491,0.46,3.019,0.759,4.545,0.905l2.236-10.598
					C62.196,306.133,60.933,305.819,59.693,305.44z"/>
				<path fill="#FFFFFF" d="M57.041,304.6l-3.461,10.307c0.818,0.381,1.644,0.701,2.485,0.984l3.109-10.606
					C58.453,305.081,57.75,304.842,57.041,304.6z"/>
				<path fill="#FFFFFF" d="M54.398,303.62c-0.464-0.188-1.003,0.081-1.232,0.6c-1.145,2.524-2.276,5.066-3.419,7.595
					c-0.231,0.519,0.085,1.029,0.578,1.347c0.858,0.533,1.738,1.013,2.637,1.451l3.535-10.201
					C55.793,304.167,55.078,303.903,54.398,303.62z"/>
			</g>
			<path fill="#FFFFFF" d="M57.275,303.893c0.668-1.536,1.859-6.769,4.361-6.034c2.711,0.787,1.881,6.12,1.638,7.767l0.665,0.193
				c0.376-2.069,1.19-5.814-2.016-6.752c-2.957-0.858-4.527,2.689-5.312,4.64L57.275,303.893z"/>
		</g>
	</g>
	<g clip-path="url(#SVGID_7_)">
		<path fill="#2E86BC" d="M114.277,284.814l-1.5-34.008c-0.074-1.819-1.803-3.251-3.816-3.164l-30.613,1.345
			c-2.014,0.101-3.608,1.666-3.529,3.505l1.495,34.014c0.085,1.825,1.806,3.261,3.822,3.168l30.613-1.352
			C112.78,288.237,114.369,286.656,114.277,284.814L114.277,284.814z"/>
		<g opacity="0.3">
			<g>
				<path fill="#FFFFFF" d="M105.33,264.219c-0.952,0.171-1.907,0.321-2.849,0.469l3.021,18.987
					c1.176-0.346,2.321-0.771,3.435-1.239c0.976-0.423,1.738-1.15,1.515-2.129c-1.063-4.856-2.116-9.721-3.182-14.597
					C107.059,264.737,106.177,264.078,105.33,264.219z"/>
				<path fill="#FFFFFF" d="M94.598,265.531l1.608,19.755c2.793-0.151,5.545-0.58,8.189-1.291l-2.861-19.173
					C99.231,265.141,96.917,265.378,94.598,265.531z"/>
				<path fill="#FFFFFF" d="M89.625,265.777l0.647,19.46c1.598,0.126,3.194,0.152,4.774,0.108l-1.409-19.744
					C92.303,265.693,90.955,265.748,89.625,265.777z"/>
				<path fill="#FFFFFF" d="M84.572,265.781c-0.874-0.013-1.636,0.779-1.711,1.772c-0.305,4.965-0.64,9.932-0.956,14.9
					c-0.07,0.999,0.782,1.65,1.808,1.88c1.773,0.356,3.552,0.629,5.319,0.801l-0.427-19.344
					C87.257,265.814,85.92,265.812,84.572,265.781z"/>
			</g>
			<path fill="#FFFFFF" d="M89.566,264.45c0.196-2.996-1.087-12.521,3.564-12.863c5.041-0.386,6.981,9.092,7.607,12.019l1.216-0.08
				c-0.668-3.702-1.638-10.509-7.596-10.073c-5.501,0.418-5.912,7.336-6.011,11.1L89.566,264.45z"/>
		</g>
	</g>
</g>
</svg>
