<?xml version="1.0" encoding="utf-8"?>
<!-- Generator: Adobe Illustrator 14.0.0, SVG Export Plug-In  -->
<!DOCTYPE svg PUBLIC "-//W3C//DTD SVG 1.1//EN" "http://www.w3.org/Graphics/SVG/1.1/DTD/svg11.dtd" [
	<!ENTITY ns_flows "http://ns.adobe.com/Flows/1.0/">
]>
<svg version="1.1"
	 xmlns="http://www.w3.org/2000/svg" xmlns:xlink="http://www.w3.org/1999/xlink" xmlns:a="http://ns.adobe.com/AdobeSVGViewerExtensions/3.0/"
	 x="0px" y="0px" width="70px" height="70px" viewBox="226.095 11058.41 70 70" enable-background="new 226.095 11058.41 70 70"
	 xml:space="preserve">
<defs>
</defs>
<rect x="0.032" y="10893.032" display="none" fill="none" stroke="#787878" stroke-width="0.0646" stroke-miterlimit="10" width="422.892" height="438.896"/>
<rect x="65.517" y="11105.047" display="none" opacity="0" fill="#FFFFFF" width="328.916" height="117.98"/>
<g display="none">
	<defs>
		<path id="SVGID_9_" d="M883.297,12366.721c-1.657,0-2.986-1.34-2.986-3v-38.992c0-1.664,1.329-3.004,2.986-3.004h144.96
			c1.662,0,3.006,1.34,3.006,3.004v38.992c0,1.66-1.344,3-3.006,3H883.297"/>
	</defs>
	<clipPath id="SVGID_13_" display="inline">
		<use xlink:href="#SVGID_9_"  display="none" overflow="visible"/>
	</clipPath>
	<g clip-path="url(#SVGID_13_)">
		<defs>
			<rect id="SVGID_11_" x="19.533" width="8947.064" height="12761.611"/>
		</defs>
		<clipPath id="SVGID_15_" display="inline">
			<use xlink:href="#SVGID_11_"  display="none" overflow="visible"/>
		</clipPath>
	</g>
</g>
<rect x="20.529" y="10618.178" display="none" fill="#FFFFFF" width="1197.669" height="447.882"/>
<rect x="20.013" y="10617.68" display="none" fill="none" stroke="#787878" stroke-width="0.0646" stroke-miterlimit="10" width="1198.703" height="448.878"/>
<line display="none" fill="none" stroke="#787878" stroke-width="0.0646" stroke-miterlimit="10" x1="20.013" y1="10617.68" x2="1218.715" y2="11066.559"/>
<line display="none" fill="none" stroke="#787878" stroke-width="0.0646" stroke-miterlimit="10" x1="1218.715" y1="10617.68" x2="20.013" y2="11066.559"/>
<rect x="20.529" y="10618.178" display="none" fill="#FFFFFF" width="1197.669" height="447.882"/>
<path fill="#FFC200" d="M288.509,11088.061c0-2.525-0.304-4.98-0.871-7.332c-1.62-3.377-3.867-6.398-6.588-8.916
	c-4.991-2.98-10.869-4.605-17.111-4.377c-17.222,0.627-30.673,15.098-30.045,32.318c0.092,2.52,0.483,4.957,1.134,7.283
	c1.405,2.676,3.209,5.111,5.334,7.225c4.879,3.164,10.696,5.002,16.944,5.002
	C274.539,11119.264,288.509,11105.293,288.509,11088.061z M272.166,11082.488c1.969,0,3.566,1.598,3.566,3.566
	s-1.597,3.566-3.566,3.566c-1.97,0-3.566-1.598-3.566-3.566S270.196,11082.488,272.166,11082.488z M261.021,11110.348
	c9.361,0,17.013-7.576,17.013-16.938h3.566c0,11.367-9.212,20.504-20.579,20.504V11110.348z M250.1,11089.621
	c-1.969,0-3.566-1.598-3.566-3.566s1.597-3.566,3.566-3.566s3.566,1.598,3.566,3.566S252.069,11089.621,250.1,11089.621z"/>
<path fill="#FFA500" d="M287.639,11080.729c0.567,2.352,0.871,4.807,0.871,7.332c0,17.232-13.97,31.203-31.203,31.203
	c-6.248,0-12.065-1.838-16.944-5.002c5.323,5.293,12.652,8.568,20.733,8.568c16.223,0,29.42-13.197,29.42-29.42
	C290.515,11088.871,289.482,11084.57,287.639,11080.729z"/>
<path fill="#FFD854" d="M263.94,11067.436c6.242-0.229,12.12,1.396,17.111,4.377c-5.248-4.852-12.261-7.822-19.956-7.822
	c-16.222,0-29.42,13.197-29.42,29.42c0,4.914,1.213,9.551,3.353,13.627c-0.65-2.326-1.042-4.764-1.134-7.283
	C233.266,11082.533,246.718,11068.062,263.94,11067.436z"/>
<path d="M261.095,11060.424c-18.188,0-32.986,14.797-32.986,32.986c0,18.188,14.798,32.986,32.986,32.986
	s32.986-14.799,32.986-32.986C294.082,11075.221,279.284,11060.424,261.095,11060.424z M261.095,11122.83
	c-8.081,0-15.411-3.275-20.733-8.568c-2.125-2.113-3.93-4.549-5.334-7.225c-2.139-4.076-3.352-8.713-3.352-13.627
	c0-16.223,13.198-29.42,29.42-29.42c7.695,0,14.708,2.971,19.956,7.822c2.721,2.518,4.968,5.539,6.588,8.916
	c1.843,3.842,2.876,8.143,2.876,12.682C290.515,11109.633,277.318,11122.83,261.095,11122.83z"/>
<path d="M281.6,11093.41h-3.566c0,9.361-7.652,16.938-17.013,16.938v3.566C272.388,11113.914,281.6,11104.777,281.6,11093.41z"/>
<circle cx="250.1" cy="11086.055" r="3.566"/>
<circle cx="272.166" cy="11086.055" r="3.566"/>
</svg>
