<?xml version="1.0" encoding="utf-8"?>
<!-- Generator: Adobe Illustrator 14.0.0, SVG Export Plug-In  -->
<!DOCTYPE svg PUBLIC "-//W3C//DTD SVG 1.1//EN" "http://www.w3.org/Graphics/SVG/1.1/DTD/svg11.dtd" [
	<!ENTITY ns_flows "http://ns.adobe.com/Flows/1.0/">
]>
<svg version="1.1"
	 xmlns="http://www.w3.org/2000/svg" xmlns:xlink="http://www.w3.org/1999/xlink" xmlns:a="http://ns.adobe.com/AdobeSVGViewerExtensions/3.0/"
	 x="0px" y="0px" width="130px" height="130px" viewBox="2067.25 2271.885 130 130"
	 enable-background="new 2067.25 2271.885 130 130" xml:space="preserve">
<defs>
</defs>
<g display="none">
	<defs>
		<path id="SVGID_5_" d="M863.765,12366.721c-1.657,0-2.986-1.34-2.986-3v-38.992c0-1.664,1.329-3.004,2.986-3.004h144.96
			c1.662,0,3.006,1.34,3.006,3.004v38.992c0,1.66-1.344,3-3.006,3H863.765"/>
	</defs>
	<clipPath id="SVGID_9_" display="inline">
		<use xlink:href="#SVGID_5_"  display="none" overflow="visible"/>
	</clipPath>
	<g clip-path="url(#SVGID_9_)">
		<defs>
			<rect id="SVGID_7_" x="0" width="8947.064" height="12761.611"/>
		</defs>
		<clipPath id="SVGID_11_" display="inline">
			<use xlink:href="#SVGID_7_"  display="none" overflow="visible"/>
		</clipPath>
	</g>
</g>
<path fill="#28406F" d="M2132.247,2399.385c-35.005,0-62.496-27.501-62.496-62.504c0-34.994,27.491-62.496,62.496-62.496
	c35.008,0,62.504,27.502,62.504,62.496C2194.75,2371.884,2167.254,2399.385,2132.247,2399.385"/>
<polygon fill="#9F9280" points="2122.047,2388.056 2142.264,2388.056 2142.522,2382.476 2121.79,2382.476 "/>
<polygon fill="#BBB29C" points="2121.63,2379.032 2142.682,2379.032 2142.941,2373.452 2121.373,2373.452 "/>
<path fill="#BBB29C" d="M2147.563,2312.785h-30.627c-1.665,0-3.018,1.353-3.018,3.016v42.169c0,1.663,1.353,3.016,3.018,3.016
	h30.627c1.665,0,3.018-1.353,3.018-3.016v-42.169C2150.581,2314.138,2149.228,2312.785,2147.563,2312.785z M2147.481,2356.316
	c0,0.951-0.77,1.721-1.721,1.721h-27.021c-0.951,0-1.721-0.771-1.721-1.721v-38.863c0-0.951,0.77-1.722,1.721-1.722h27.021
	c0.951,0,1.721,0.771,1.721,1.722V2356.316z"/>
<polygon fill="#9F9280" points="2121.213,2370.008 2143.1,2370.008 2143.359,2364.429 2120.954,2364.429 "/>
<path fill="#F2DDAC" d="M2133.878,2322.446c0,0.952-0.771,1.721-1.722,1.721c-0.952,0-1.723-0.77-1.723-1.721v-3.271h-9.973v35.419
	h9.973v-3.271c0-0.951,0.771-1.72,1.723-1.72c0.95,0,1.722,0.769,1.722,1.72v3.271h10.16v-35.419h-10.16V2322.446z
	 M2140.395,2341.277c-0.31,0.582-0.907,0.912-1.521,0.912c-0.273,0-0.551-0.065-0.809-0.203l-6.718-3.583
	c-0.356-0.19-0.637-0.498-0.788-0.872l-3.908-9.659c-0.356-0.882,0.068-1.884,0.949-2.241c0.883-0.356,1.886,0.068,2.242,0.95
	l3.674,9.078l6.17,3.289C2140.525,2339.396,2140.841,2340.439,2140.395,2341.277z"/>
<polygon fill="#9F9280" points="2142.264,2285.714 2122.047,2285.714 2121.79,2291.295 2142.522,2291.295 "/>
<polygon fill="#BBB29C" points="2142.682,2294.737 2121.63,2294.737 2121.373,2300.317 2142.941,2300.317 "/>
<polygon fill="#9F9280" points="2143.1,2303.761 2121.213,2303.761 2120.954,2309.34 2143.359,2309.34 "/>
<path fill="#3F352F" d="M2129.842,2326.582c-0.356-0.882-1.359-1.307-2.242-0.95c-0.88,0.357-1.306,1.359-0.949,2.241l3.908,9.659
	c0.151,0.374,0.432,0.682,0.788,0.872l6.718,3.583c0.258,0.138,0.535,0.203,0.809,0.203c0.614,0,1.212-0.331,1.521-0.912
	c0.446-0.838,0.13-1.882-0.709-2.329l-6.17-3.289L2129.842,2326.582z"/>
<path fill="#3F352F" d="M2147.563,2309.34h-0.757l-1.179-25.428c-0.043-0.918-0.8-1.642-1.721-1.642h-23.501
	c-0.919,0-1.679,0.724-1.721,1.642l-1.179,25.428h-0.57c-3.563,0-6.461,2.898-6.461,6.46v42.169c0,3.562,2.897,6.46,6.461,6.46h0.57
	l1.179,25.428c0.042,0.918,0.802,1.641,1.721,1.641h23.501c0.921,0,1.678-0.723,1.721-1.641l1.178-25.428h0.758
	c3.563,0,6.463-2.899,6.463-6.46v-42.169C2154.026,2312.239,2151.126,2309.34,2147.563,2309.34z M2122.047,2285.714h20.217
	l0.258,5.58h-20.732L2122.047,2285.714z M2121.63,2294.737h21.052l0.259,5.58h-21.568L2121.63,2294.737z M2121.213,2303.761h21.888
	l0.258,5.579h-22.403L2121.213,2303.761z M2142.264,2388.056h-20.216l-0.259-5.58h20.732L2142.264,2388.056z M2142.682,2379.032
	h-21.052l-0.258-5.58h21.568L2142.682,2379.032z M2143.1,2370.008h-21.888l-0.259-5.58h22.405L2143.1,2370.008z M2150.581,2357.969
	c0,1.664-1.353,3.017-3.018,3.017h-30.627c-1.665,0-3.018-1.353-3.018-3.017v-42.168c0-1.663,1.353-3.017,3.018-3.017h30.627
	c1.665,0,3.018,1.354,3.018,3.017V2357.969z"/>
<path fill="#3F352F" d="M2145.76,2315.731h-27.021c-0.951,0-1.721,0.771-1.721,1.722v38.863c0,0.951,0.77,1.721,1.721,1.721h27.021
	c0.951,0,1.721-0.771,1.721-1.721v-38.863C2147.481,2316.503,2146.711,2315.731,2145.76,2315.731z M2144.039,2354.594h-10.16v-3.271
	c0-0.951-0.771-1.72-1.722-1.72c-0.952,0-1.723,0.769-1.723,1.72v3.271h-9.973v-35.419h9.973v3.271c0,0.952,0.771,1.721,1.723,1.721
	c0.95,0,1.722-0.77,1.722-1.721v-3.271h10.16V2354.594z"/>
</svg>
