<?xml version="1.0" encoding="utf-8"?>
<!-- Generator: Adobe Illustrator 14.0.0, SVG Export Plug-In  -->
<!DOCTYPE svg PUBLIC "-//W3C//DTD SVG 1.1//EN" "http://www.w3.org/Graphics/SVG/1.1/DTD/svg11.dtd" [
	<!ENTITY ns_flows "http://ns.adobe.com/Flows/1.0/">
]>
<svg version="1.1"
	 xmlns="http://www.w3.org/2000/svg" xmlns:xlink="http://www.w3.org/1999/xlink" xmlns:a="http://ns.adobe.com/AdobeSVGViewerExtensions/3.0/"
	 x="0px" y="0px" width="130px" height="130px" viewBox="3897.944 2540.466 130 130"
	 enable-background="new 3897.944 2540.466 130 130" xml:space="preserve">
<defs>
</defs>
<g display="none">
	<defs>
		<path id="SVGID_5_" d="M863.765,12366.721c-1.657,0-2.986-1.34-2.986-3v-38.992c0-1.664,1.329-3.004,2.986-3.004h144.96
			c1.662,0,3.006,1.34,3.006,3.004v38.992c0,1.66-1.344,3-3.006,3H863.765"/>
	</defs>
	<clipPath id="SVGID_9_" display="inline">
		<use xlink:href="#SVGID_5_"  display="none" overflow="visible"/>
	</clipPath>
	<g clip-path="url(#SVGID_9_)">
		<defs>
			<rect id="SVGID_7_" x="0" width="8947.064" height="12761.611"/>
		</defs>
		<clipPath id="SVGID_11_" display="inline">
			<use xlink:href="#SVGID_7_"  display="none" overflow="visible"/>
		</clipPath>
	</g>
</g>
<path fill="#28406F" d="M3962.941,2667.966c-35.005,0-62.497-27.501-62.497-62.504c0-34.994,27.492-62.496,62.497-62.496
	c35.008,0,62.503,27.502,62.503,62.496C4025.444,2640.465,3997.949,2667.966,3962.941,2667.966"/>
<path fill="#96A4B8" d="M3971.545,2571.172l-0.199-0.066c-0.504-2.39-1.977-4.522-4.04-5.848c-2.093-1.343-4.61-1.778-7.089-1.221
	c-3.391,0.762-6.082,3.443-6.856,6.83c-1.052,4.607,1.477,9.262,5.878,10.829c0.759,0.271,1.249,0.887,1.249,1.57v8.177h3.687
	v-8.177c0-2.262-1.452-4.242-3.699-5.041c-2.303-0.821-4.253-3.33-3.52-6.537c0.451-1.981,2.088-3.61,4.07-4.056
	c1.509-0.337,3.033-0.079,4.288,0.727c1.239,0.796,2.124,2.076,2.426,3.509c0.372,1.76,1.857,2.99,3.612,2.99h0.193
	c1.018,0,1.842-0.825,1.842-1.843S3972.563,2571.172,3971.545,2571.172z"/>
<rect x="3910.502" y="2624.614" fill="#A37D50" width="103.657" height="3.686"/>
<path fill="#CB9E6E" d="M4013.819,2623.46l-37.652-22.25c-0.611-0.361-1.104-0.89-1.422-1.524l-4.023-8.048
	c-0.624-1.249-1.9-2.038-3.297-2.038h-5.094h-5.092c-1.396,0-2.674,0.789-3.298,2.038l-4.023,8.048
	c-0.317,0.635-0.811,1.164-1.422,1.524l-37.652,22.25c-1.21,0.715-1.954,2.016-1.954,3.422v1.462c0,0.808,0.867,1.319,1.574,0.929
	l51.867-28.617l51.868,28.617c0.707,0.39,1.573-0.122,1.573-0.929v-1.462C4015.772,2625.477,4015.03,2624.175,4013.819,2623.46z"/>
<path fill="#BC8F69" d="M3962.331,2600.658l-51.867,28.617c-0.707,0.39-1.574-0.122-1.574-0.929v-1.462
	c0-1.406,0.744-2.708,1.954-3.422l37.652-22.25c0.611-0.361,1.104-0.89,1.422-1.524l4.023-8.048
	c0.624-1.249,1.901-2.038,3.298-2.038h5.092V2600.658z"/>
</svg>
