<?xml version="1.0" encoding="utf-8"?>
<!-- Generator: Adobe Illustrator 14.0.0, SVG Export Plug-In  -->
<!DOCTYPE svg PUBLIC "-//W3C//DTD SVG 1.1//EN" "http://www.w3.org/Graphics/SVG/1.1/DTD/svg11.dtd" [
	<!ENTITY ns_flows "http://ns.adobe.com/Flows/1.0/">
]>
<svg version="1.1"
	 xmlns="http://www.w3.org/2000/svg" xmlns:xlink="http://www.w3.org/1999/xlink" xmlns:a="http://ns.adobe.com/AdobeSVGViewerExtensions/3.0/"
	 x="0px" y="0px" width="130px" height="130px" viewBox="1823.399 2674.923 130 130"
	 enable-background="new 1823.399 2674.923 130 130" xml:space="preserve">
<defs>
</defs>
<g display="none">
	<defs>
		<path id="SVGID_5_" d="M863.765,12366.721c-1.657,0-2.986-1.34-2.986-3v-38.992c0-1.664,1.329-3.004,2.986-3.004h144.96
			c1.662,0,3.006,1.34,3.006,3.004v38.992c0,1.66-1.344,3-3.006,3H863.765"/>
	</defs>
	<clipPath id="SVGID_9_" display="inline">
		<use xlink:href="#SVGID_5_"  display="none" overflow="visible"/>
	</clipPath>
	<g clip-path="url(#SVGID_9_)">
		<defs>
			<rect id="SVGID_7_" x="0" width="8947.064" height="12761.611"/>
		</defs>
		<clipPath id="SVGID_11_" display="inline">
			<use xlink:href="#SVGID_7_"  display="none" overflow="visible"/>
		</clipPath>
	</g>
</g>
<path fill="#28406F" d="M1888.395,2801.907c-35.005,0-62.496-27.273-62.496-61.987c0-34.705,27.491-61.98,62.496-61.98
	c35.008,0,62.504,27.275,62.504,61.98C1950.899,2774.633,1923.403,2801.907,1888.395,2801.907"/>
<polygon fill="#7E6F80" points="1875.444,2711.029 1872.348,2698.339 1871.18,2698.339 1874.32,2711.029 "/>
<polygon fill="#7E6F80" points="1903.598,2698.339 1902.431,2698.339 1899.336,2711.029 1900.459,2711.029 "/>
<path fill="#DFAD39" d="M1905.494,2757.617c-0.004-0.017-0.007-0.034-0.01-0.051c-2.36-14.731-6.938-18.771-7.926-19.486h-20.337
	c-0.986,0.714-5.566,4.754-7.928,19.486c-0.002,0.017-0.006,0.034-0.008,0.051c-0.042,0.196-1.018,4.844-2.76,9.919
	c-1.807,5.259-3.744,8.946-5.781,11.014c0.783,0.421,1.369,0.99,1.884,1.495c0.867,0.849,1.493,1.462,2.852,1.462
	s1.983-0.613,2.851-1.462c0.809-0.792,1.786-1.744,3.439-2.026l1.124-8.637c0.08-0.619,0.651-1.056,1.274-0.975
	c0.623,0.08,1.062,0.646,0.982,1.264l-1.094,8.399c1.495,0.335,2.41,1.228,3.174,1.976c0.868,0.85,1.494,1.462,2.854,1.462
	c1.357,0,1.983-0.612,2.851-1.462c0.788-0.771,1.735-1.697,3.313-2.006v-8.514c0-0.624,0.51-1.128,1.138-1.128
	c0.629,0,1.138,0.504,1.138,1.128v8.514c1.578,0.309,2.525,1.235,3.313,2.006c0.867,0.85,1.493,1.462,2.853,1.462
	c1.358,0,1.984-0.612,2.852-1.462c0.768-0.752,1.688-1.648,3.195-1.98l-1.093-8.395c-0.081-0.617,0.36-1.184,0.982-1.264
	c0.623-0.08,1.194,0.356,1.274,0.975l1.125,8.64c1.64,0.289,2.612,1.235,3.418,2.023c0.867,0.85,1.493,1.462,2.852,1.462
	c1.359,0,1.986-0.612,2.854-1.462c0.515-0.505,1.1-1.074,1.883-1.495c-2.036-2.067-3.973-5.754-5.778-11.014
	C1906.51,2762.46,1905.534,2757.812,1905.494,2757.617z"/>
<path fill="#DFAD39" d="M1897.407,2735.823c0.812-0.923,3.352-4.334,5.164-12.646c-0.482-1.225-2.072-5.553-2.323-9.892h-2.177
	c-0.943,0.325-6.406,2.418-9.686,8.27l-0.005-0.002c-0.1,0.179-0.247,0.334-0.439,0.439c-0.55,0.304-1.242,0.106-1.547-0.438
	c-3.298-5.881-8.737-7.947-9.686-8.27h-2.179c-0.25,4.339-1.841,8.667-2.322,9.892c1.811,8.307,4.349,11.721,5.163,12.646H1897.407
	L1897.407,2735.823z"/>
<path fill="#3F352F" d="M1917.081,2778.038c-4.537-2.102-8.284-15.739-9.354-20.852c-2.156-13.439-6.197-18.606-8.18-20.397
	c1.287-1.66,3.645-5.577,5.322-13.479c0.047-0.224,0.025-0.455-0.062-0.666c-0.023-0.055-2.275-5.491-2.316-10.356l3.664-14.807
	c0.083-0.337,0.006-0.693-0.209-0.966c-0.217-0.272-0.547-0.431-0.896-0.431h-3.514c-0.525,0-0.982,0.356-1.105,0.863l-3.501,14.35
	c-1.661,0.627-6.188,2.694-9.54,7.572c-3.352-4.877-7.879-6.944-9.539-7.572l-3.501-14.35c-0.123-0.506-0.581-0.863-1.106-0.863
	h-3.513c-0.351,0-0.681,0.159-0.896,0.431c-0.216,0.274-0.293,0.629-0.21,0.966l3.663,14.806
	c-0.039,4.866-2.292,10.302-2.314,10.357c-0.089,0.211-0.11,0.443-0.063,0.666c1.678,7.899,4.035,11.818,5.321,13.479
	c-1.98,1.792-6.021,6.96-8.179,20.397c-1.068,5.112-4.812,18.749-9.354,20.852c-0.569,0.264-0.816,0.935-0.551,1.5
	c0.193,0.41,0.604,0.651,1.032,0.651c0.001,0,0.002,0,0.003,0c1.355,0.001,1.981,0.615,2.848,1.462
	c0.962,0.941,2.158,2.113,4.45,2.113c2.293,0,3.489-1.172,4.451-2.113c0.866-0.848,1.492-1.462,2.851-1.462s1.984,0.614,2.852,1.462
	c0.963,0.941,2.158,2.113,4.451,2.113s3.488-1.172,4.451-2.113c0.867-0.848,1.493-1.462,2.852-1.462s1.984,0.614,2.852,1.462
	c0.961,0.941,2.158,2.113,4.451,2.113s3.489-1.172,4.451-2.113c0.867-0.848,1.493-1.462,2.852-1.462
	c1.359,0,1.985,0.614,2.853,1.462c0.962,0.941,2.157,2.113,4.451,2.113s3.49-1.172,4.452-2.113c0.866-0.847,1.492-1.46,2.849-1.462
	c0.001,0,0.002,0,0.003,0c0.428,0,0.839-0.24,1.031-0.651C1917.897,2778.972,1917.651,2778.301,1917.081,2778.038z
	 M1902.431,2698.339h1.167l-3.139,12.69h-1.124L1902.431,2698.339z M1871.18,2698.339h1.168l3.096,12.69h-1.124L1871.18,2698.339z
	 M1872.208,2723.177c0.482-1.225,2.072-5.553,2.324-9.892h2.177c0.948,0.322,6.389,2.389,9.686,8.27
	c0.305,0.544,0.997,0.741,1.547,0.438c0.194-0.105,0.34-0.261,0.44-0.439l0.004,0.002c3.28-5.852,8.742-7.944,9.687-8.27h2.176
	c0.252,4.339,1.842,8.667,2.323,9.892c-1.812,8.312-4.35,11.723-5.164,12.646h-20.035
	C1876.556,2734.898,1874.018,2731.484,1872.208,2723.177z M1912.149,2780.044c-0.867,0.849-1.494,1.462-2.853,1.462
	c-1.359,0-1.985-0.613-2.853-1.462c-0.806-0.788-1.778-1.735-3.418-2.023l-1.125-8.64c-0.08-0.619-0.65-1.056-1.273-0.975
	c-0.623,0.08-1.064,0.646-0.983,1.264l1.093,8.395c-1.507,0.332-2.428,1.228-3.195,1.98c-0.866,0.849-1.493,1.462-2.852,1.462
	c-1.359,0-1.985-0.613-2.853-1.462c-0.787-0.771-1.735-1.697-3.312-2.006v-8.514c0-0.624-0.509-1.128-1.139-1.128
	c-0.628,0-1.138,0.504-1.138,1.128v8.514c-1.578,0.309-2.525,1.235-3.312,2.006c-0.867,0.85-1.494,1.462-2.852,1.462
	c-1.359,0-1.985-0.612-2.853-1.462c-0.765-0.748-1.68-1.641-3.173-1.976l1.092-8.399c0.081-0.617-0.359-1.184-0.982-1.264
	c-0.623-0.081-1.193,0.356-1.273,0.975l-1.125,8.637c-1.653,0.283-2.631,1.234-3.438,2.026c-0.867,0.849-1.493,1.462-2.852,1.462
	s-1.984-0.613-2.851-1.462c-0.516-0.505-1.102-1.074-1.885-1.495c2.037-2.067,3.975-5.754,5.781-11.014
	c1.743-5.075,2.719-9.723,2.76-9.919c0.004-0.017,0.006-0.034,0.01-0.051c2.36-14.732,6.939-18.772,7.926-19.486h20.338
	c0.986,0.715,5.565,4.755,7.925,19.486c0.004,0.017,0.007,0.034,0.01,0.051c0.042,0.196,1.017,4.844,2.761,9.919
	c1.806,5.259,3.742,8.946,5.779,11.014C1913.25,2778.97,1912.664,2779.54,1912.149,2780.044z"/>
</svg>
