<?xml version="1.0" encoding="utf-8"?>
<!-- Generator: Adobe Illustrator 14.0.0, SVG Export Plug-In  -->
<!DOCTYPE svg PUBLIC "-//W3C//DTD SVG 1.1//EN" "http://www.w3.org/Graphics/SVG/1.1/DTD/svg11.dtd" [
	<!ENTITY ns_flows "http://ns.adobe.com/Flows/1.0/">
]>
<svg version="1.1"
	 xmlns="http://www.w3.org/2000/svg" xmlns:xlink="http://www.w3.org/1999/xlink" xmlns:a="http://ns.adobe.com/AdobeSVGViewerExtensions/3.0/"
	 x="0px" y="0px" width="130px" height="130px" viewBox="3897.944 2920.363 130 130"
	 enable-background="new 3897.944 2920.363 130 130" xml:space="preserve">
<defs>
</defs>
<g display="none">
	<defs>
		<path id="SVGID_5_" d="M863.765,12366.721c-1.657,0-2.986-1.34-2.986-3v-38.992c0-1.664,1.329-3.004,2.986-3.004h144.96
			c1.662,0,3.006,1.34,3.006,3.004v38.992c0,1.66-1.344,3-3.006,3H863.765"/>
	</defs>
	<clipPath id="SVGID_9_" display="inline">
		<use xlink:href="#SVGID_5_"  display="none" overflow="visible"/>
	</clipPath>
	<g clip-path="url(#SVGID_9_)">
		<defs>
			<rect id="SVGID_7_" x="0" width="8947.064" height="12761.611"/>
		</defs>
		<clipPath id="SVGID_11_" display="inline">
			<use xlink:href="#SVGID_7_"  display="none" overflow="visible"/>
		</clipPath>
	</g>
</g>
<path fill="#28406F" d="M3962.941,3047.863c-35.005,0-62.497-27.501-62.497-62.503c0-34.995,27.492-62.497,62.497-62.497
	c35.008,0,62.503,27.502,62.503,62.497C4025.444,3020.362,3997.949,3047.863,3962.941,3047.863"/>
<path fill="#F05A29" d="M4002.631,2999.479h-80.378c-0.518,0-0.938,0.42-0.938,0.938v6.04c0,0.519,0.42,0.938,0.938,0.938h3.733
	v5.953c0,2.473,2.007,4.482,4.482,4.482h2.986c2.475,0,4.481-2.009,4.481-4.482v-5.953h51.371v5.953
	c0,2.473,2.007,4.482,4.483,4.482h2.985c2.474,0,4.481-2.009,4.481-4.482v-5.953h1.371c0.516,0,0.937-0.419,0.937-0.938v-6.039
	C4003.567,2999.898,4003.147,2999.48,4002.631,2999.479z"/>
<path fill="#5C3F25" d="M3989.28,3007.395v5.953c0,2.473,2.008,4.482,4.482,4.482h2.984c2.477,0,4.483-2.009,4.483-4.482v-5.953
	H3989.28z"/>
<path fill="#5C3F25" d="M3925.958,3007.395v5.953c0,2.473,2.007,4.482,4.482,4.482h2.985c2.476,0,4.483-2.009,4.483-4.482v-5.953
	H3925.958z"/>
<path fill="#76D2BF" d="M3996.959,2979.1c-2.607-11.33-11.387-24.64-13.835-24.64c-1.218,0-10.896-0.91-20.683-0.91
	c-9.873,0-19.852,0.91-20.906,0.91c-2.098,0-11.227,13.309-13.834,24.64c-8.838,1.709-7.284,16.805-7.213,17.462
	c0.053,0.476,0.453,0.834,0.933,0.834h0.001l40.909-0.098l40.907,0.098h0.003c0.478,0,0.88-0.359,0.932-0.834
	C4004.244,2995.905,4005.799,2980.81,3996.959,2979.1z"/>
<circle fill="#EDA346" cx="3931.962" cy="2988.752" r="4.166"/>
<path fill="#CDFFEC" d="M3934.595,2979.639c-0.099,0-0.19-0.047-0.251-0.124l-0.049-0.276c0.215-0.748,5.359-18.361,9.062-19.648
	c3.601-1.25,18.345-1.352,18.971-1.354c-0.002,0,1.498-0.027,3.69-0.027c6.917,0,15.124,0.324,16.667,1.424
	c2.244,1.603,8.508,18.854,8.757,19.592c0.032,0.096,0.017,0.2-0.042,0.281s-0.152,0.131-0.253,0.131L3934.595,2979.639
	L3934.595,2979.639z"/>
<path fill="#EDA346" d="M3992.699,2992.917c-2.304,0-4.165-1.866-4.165-4.165c0-2.302,1.863-4.167,4.165-4.167
	s4.166,1.865,4.166,4.167C3996.866,2991.053,3995,2992.917,3992.699,2992.917z"/>
<rect x="3950.258" y="2987.018" fill="#CDFFEC" width="25.226" height="5.901"/>
<rect x="3923.606" y="2974.196" fill="#F05A29" width="10.989" height="5.442"/>
<rect x="3991.401" y="2974.196" fill="#F05A29" width="10.989" height="5.442"/>
<path fill="#FFFFFF" d="M3940.303,2979.639l35.52-21.167c3.367,0.214,6.047,0.579,6.863,1.161c0.299,0.216,0.672,0.71,1.092,1.405
	l-31.243,18.601H3940.303z"/>
<path fill="#FFFFFF" d="M3935.106,2976.586l30.766-18.377h0.148c1.912,0,3.923,0.024,5.864,0.084l-35.793,21.346h-1.495
	c-0.1,0-0.19-0.047-0.25-0.124l-0.051-0.276C3934.343,2979.073,3934.637,2978.065,3935.106,2976.586z"/>
<path fill="#FFFFFF" d="M3957.891,2979.639l27.168-16.183c0.42,0.869,0.859,1.835,1.301,2.849l-22.355,13.333H3957.891z"/>
</svg>
