<?xml version="1.0" encoding="utf-8"?>
<!-- Generator: Adobe Illustrator 14.0.0, SVG Export Plug-In  -->
<!DOCTYPE svg PUBLIC "-//W3C//DTD SVG 1.1//EN" "http://www.w3.org/Graphics/SVG/1.1/DTD/svg11.dtd" [
	<!ENTITY ns_flows "http://ns.adobe.com/Flows/1.0/">
]>
<svg version="1.1"
	 xmlns="http://www.w3.org/2000/svg" xmlns:xlink="http://www.w3.org/1999/xlink" xmlns:a="http://ns.adobe.com/AdobeSVGViewerExtensions/3.0/"
	 x="0px" y="0px" width="130px" height="130px" viewBox="1810.444 2890.153 130 130"
	 enable-background="new 1810.444 2890.153 130 130" xml:space="preserve">
<defs>
</defs>
<g display="none">
	<defs>
		<path id="SVGID_5_" d="M863.765,12366.721c-1.657,0-2.986-1.34-2.986-3v-38.992c0-1.664,1.329-3.004,2.986-3.004h144.96
			c1.662,0,3.006,1.34,3.006,3.004v38.992c0,1.66-1.344,3-3.006,3H863.765"/>
	</defs>
	<clipPath id="SVGID_9_" display="inline">
		<use xlink:href="#SVGID_5_"  display="none" overflow="visible"/>
	</clipPath>
	<g clip-path="url(#SVGID_9_)">
		<defs>
			<rect id="SVGID_7_" x="0" width="8947.064" height="12761.611"/>
		</defs>
		<clipPath id="SVGID_11_" display="inline">
			<use xlink:href="#SVGID_7_"  display="none" overflow="visible"/>
		</clipPath>
	</g>
</g>
<path fill="#28406F" d="M1875.44,3017.653c-35.005,0-62.497-27.5-62.497-62.503c0-34.995,27.492-62.497,62.497-62.497
	c35.008,0,62.504,27.502,62.504,62.497C1937.944,2990.153,1910.448,3017.653,1875.44,3017.653"/>
<path fill="#AFC7D3" d="M1839.223,2943.433c-0.852,2.369-1.843,5.144-3.002,8.447l1.244,0.374l2.983-8.47L1839.223,2943.433z"/>
<polygon fill="#AFC7D3" points="1839.753,2952.943 1846.598,2955.004 1849.05,2950.635 1841.361,2948.376 "/>
<path fill="#82AABE" d="M1847.377,2920.556c-0.791,1.171-1.342,2.563-1.845,4.428c-1.161,4.307-2.102,6.886-4.162,12.534
	c-0.396,1.087-0.839,2.3-1.334,3.666l2.285,0.654c0.315,0.091,0.581,0.307,0.732,0.6c0.151,0.292,0.175,0.634,0.064,0.944
	l-0.965,2.743l8.095,2.376l1.248-2.226l0.558-10.111C1852.047,2935.644,1851.874,2926.7,1847.377,2920.556z"/>
<path fill="#AFC7D3" d="M1863.809,2943.984c-0.119,0-0.238-0.017-0.353-0.054l-4.637-1.436l0.331,6.616l4.657,2.082l4.659-2.082
	l0.331-6.616l-4.636,1.436C1864.047,2943.967,1863.928,2943.984,1863.809,2943.984z"/>
<path fill="#82AABE" d="M1883.93,2921.042c0.732-1.618,3.26-6.876,4.223-9.245l-3.277-3.876c-0.533,2.025-1.455,5.56-2.862,11.062
	L1883.93,2921.042z"/>
<path fill="#AFC7D3" d="M1890.091,2923.977h8.821c0.746-1.811,1.717-3.614,2.982-5.244c-0.808-0.716-1.793-1.391-3.029-2.117
	c-3.914-2.296-7.112-3.285-8.607-3.66c-0.933,2.275-2.959,6.491-3.297,7.21L1890.091,2923.977z"/>
<path fill="#AFC7D3" d="M1860.795,2923.977l3.134-3.803c-0.34-0.724-2.369-4.944-3.299-7.218c-1.497,0.375-4.695,1.364-8.608,3.66
	c-1.238,0.727-2.223,1.402-3.029,2.117c1.264,1.63,2.236,3.434,2.981,5.244H1860.795z"/>
<path fill="#AFC7D3" d="M1881.909,2909.832c0.367-1.413,0.647-2.477,0.849-3.234h-14.628c0.201,0.757,0.48,1.821,0.85,3.234
	H1881.909z"/>
<path fill="#AFC7D3" d="M1863.809,2941.543l5.117-1.585l0.129-2.575h-10.492l0.13,2.575L1863.809,2941.543z M1862.966,2938.532
	c0.22-0.222,0.527-0.348,0.843-0.348c0.314,0,0.623,0.126,0.845,0.348c0.222,0.226,0.349,0.532,0.349,0.845
	c0,0.315-0.127,0.62-0.349,0.842c-0.222,0.226-0.53,0.352-0.845,0.352c-0.315,0-0.621-0.126-0.843-0.352
	c-0.224-0.218-0.35-0.526-0.35-0.842S1862.743,2938.755,1862.966,2938.532z"/>
<path fill="#82AABE" d="M1868.873,2918.982c-1.405-5.503-2.328-9.038-2.861-11.062l-3.276,3.876c0.962,2.369,3.49,7.627,4.223,9.245
	L1868.873,2918.982z"/>
<path fill="#82AABE" d="M1898.052,2926.361h-8.524c-0.357,0-0.695-0.159-0.922-0.435l-2.752-3.349
	c-0.152,0.341-0.311,0.697-0.479,1.077c-0.162,0.367-0.496,0.628-0.893,0.695c-0.066,0.012-0.133,0.017-0.199,0.017
	c-0.328,0-0.646-0.136-0.873-0.38l-2.742-2.947l-4.031,4.058v1.571c0.055-0.106,0.121-0.206,0.207-0.292
	c0.223-0.221,0.53-0.35,0.842-0.35c0.314,0,0.623,0.129,0.846,0.35c0.221,0.223,0.348,0.53,0.348,0.845
	c0,0.313-0.127,0.621-0.348,0.842c-0.223,0.222-0.531,0.351-0.846,0.351c-0.312,0-0.619-0.129-0.842-0.351
	c-0.086-0.084-0.152-0.185-0.207-0.291v6.765c0.055-0.105,0.121-0.207,0.207-0.291c0.223-0.222,0.527-0.349,0.842-0.349
	s0.623,0.126,0.846,0.349c0.221,0.222,0.348,0.529,0.348,0.844c0,0.312-0.127,0.621-0.348,0.842
	c-0.223,0.223-0.531,0.352-0.846,0.352c-0.312,0-0.619-0.126-0.842-0.352c-0.086-0.085-0.152-0.184-0.207-0.29v6.764
	c0.055-0.105,0.121-0.205,0.207-0.29c0.223-0.224,0.53-0.351,0.842-0.351c0.314,0,0.623,0.126,0.846,0.351
	c0.221,0.222,0.348,0.53,0.348,0.842c0,0.313-0.127,0.621-0.348,0.845c-0.223,0.221-0.531,0.349-0.846,0.349
	c-0.312,0-0.619-0.127-0.842-0.349c-0.086-0.086-0.152-0.187-0.207-0.293v6.766c0.055-0.105,0.121-0.206,0.207-0.29
	c0.223-0.223,0.53-0.352,0.842-0.352c0.314,0,0.623,0.129,0.846,0.352c0.221,0.221,0.348,0.529,0.348,0.841
	c0,0.315-0.127,0.623-0.348,0.846c-0.223,0.221-0.531,0.348-0.846,0.348c-0.312,0-0.619-0.127-0.842-0.348
	c-0.086-0.086-0.152-0.186-0.207-0.292v6.765c0.055-0.105,0.121-0.206,0.207-0.292c0.223-0.222,0.53-0.351,0.842-0.351
	c0.314,0,0.623,0.129,0.846,0.351c0.221,0.222,0.348,0.53,0.348,0.843s-0.127,0.623-0.348,0.844
	c-0.223,0.223-0.531,0.348-0.846,0.348c-0.312,0-0.619-0.125-0.842-0.348c-0.086-0.086-0.152-0.186-0.207-0.292v6.766
	c0.055-0.106,0.121-0.207,0.207-0.293c0.223-0.221,0.527-0.347,0.842-0.347s0.623,0.126,0.846,0.347
	c0.221,0.223,0.348,0.531,0.348,0.845c0,0.313-0.127,0.621-0.348,0.842c-0.223,0.222-0.531,0.351-0.846,0.351
	c-0.312,0-0.619-0.129-0.842-0.351c-0.086-0.084-0.152-0.185-0.207-0.292v6.766c0.055-0.106,0.121-0.207,0.207-0.292
	c0.223-0.223,0.527-0.349,0.842-0.349s0.623,0.126,0.846,0.349c0.221,0.224,0.348,0.529,0.348,0.844
	c0,0.312-0.127,0.621-0.348,0.842c-0.223,0.225-0.531,0.352-0.846,0.352c-0.312,0-0.619-0.127-0.842-0.352
	c-0.086-0.085-0.152-0.186-0.207-0.291v6.765c0.055-0.106,0.121-0.206,0.207-0.291c0.223-0.222,0.53-0.351,0.842-0.351
	c0.314,0,0.623,0.129,0.846,0.351c0.221,0.223,0.348,0.53,0.348,0.843c0,0.314-0.127,0.62-0.348,0.843
	c-0.223,0.223-0.531,0.349-0.846,0.349c-0.312,0-0.619-0.126-0.842-0.349c-0.086-0.085-0.152-0.186-0.207-0.291v6.765
	c0.055-0.105,0.121-0.206,0.207-0.291c0.223-0.222,0.53-0.352,0.842-0.352c0.314,0,0.623,0.129,0.846,0.352
	c0.221,0.22,0.348,0.529,0.348,0.841c0,0.315-0.127,0.623-0.348,0.846c-0.223,0.221-0.531,0.348-0.846,0.348
	c-0.312,0-0.619-0.127-0.842-0.348c-0.086-0.086-0.152-0.187-0.207-0.292v6.344c18.678-0.265,22.287-6.729,22.734-7.743
	l-2.923-53.072C1896.448,2936.245,1896.476,2931.389,1898.052,2926.361z M1894.083,2949.959c-0.023,0.448-0.295,0.846-0.704,1.029
	l-5.813,2.598c-0.158,0.071-0.323,0.104-0.486,0.104c-0.17,0-0.335-0.036-0.487-0.104h-0.001l-5.813-2.598
	c-0.409-0.183-0.682-0.582-0.704-1.029l-0.686-13.71c-0.018-0.325,0.102-0.645,0.326-0.882c0.225-0.236,0.537-0.371,0.864-0.371h13
	c0.326,0,0.639,0.135,0.865,0.371c0.224,0.237,0.343,0.557,0.327,0.882L1894.083,2949.959z"/>
<path fill="#AFC7D3" d="M1910.439,2943.784l2.981,8.47l1.246-0.374c-1.16-3.303-2.151-6.079-3.003-8.447L1910.439,2943.784z"/>
<polygon fill="#AFC7D3" points="1901.836,2950.635 1904.288,2955.004 1911.133,2952.943 1909.527,2948.376 "/>
<path fill="#AFC7D3" d="M1881.961,2939.958l5.117,1.585l5.116-1.585l0.128-2.575h-10.49L1881.961,2939.958z M1886.233,2938.532
	c0.222-0.222,0.529-0.348,0.846-0.348c0.314,0,0.619,0.126,0.841,0.348c0.225,0.223,0.352,0.53,0.352,0.845
	c0,0.312-0.127,0.62-0.352,0.845c-0.222,0.223-0.529,0.349-0.841,0.349c-0.316,0-0.624-0.126-0.846-0.349
	c-0.222-0.225-0.348-0.532-0.348-0.845C1885.885,2939.062,1886.011,2938.758,1886.233,2938.532z"/>
<path fill="#82AABE" d="M1907.768,2943.381c-0.109-0.31-0.086-0.652,0.064-0.944c0.151-0.292,0.416-0.509,0.732-0.6l2.286-0.654
	c-0.496-1.367-0.938-2.581-1.336-3.668c-2.061-5.648-3.001-8.226-4.162-12.532c-0.502-1.865-1.052-3.257-1.845-4.428
	c-4.507,6.154-4.67,15.086-4.675,15.606l0.557,10.112l1.249,2.227l8.094-2.377L1907.768,2943.381z"/>
<path fill="#9F9280" d="M1881.289,2912.219h-11.69c0.46,1.776,1.012,3.922,1.668,6.49l4.178,4.203l4.177-4.203
	C1880.277,2916.141,1880.83,2913.995,1881.289,2912.219z"/>
<path fill="#82AABE" d="M1867.476,2923.986c-0.228,0.244-0.545,0.38-0.874,0.38c-0.065,0-0.133-0.005-0.197-0.017
	c-0.396-0.067-0.731-0.328-0.894-0.695c-0.167-0.378-0.324-0.732-0.476-1.07l-2.756,3.343c-0.227,0.275-0.563,0.435-0.92,0.435
	h-8.525c1.577,5.027,1.604,9.883,1.604,9.894l-2.923,53.07c0.445,1.012,4.03,7.479,22.735,7.745v-71.974l-4.031-4.058
	L1867.476,2923.986z M1871.173,2935.367c0.226,0.237,0.344,0.557,0.328,0.882l-0.688,13.71c-0.022,0.448-0.294,0.846-0.704,1.029
	l-5.813,2.598l0,0c-0.151,0.068-0.318,0.104-0.488,0.104c-0.162,0-0.327-0.033-0.485-0.104l-5.813-2.598
	c-0.41-0.183-0.683-0.582-0.704-1.029l-0.687-13.71c-0.017-0.325,0.102-0.645,0.326-0.882c0.226-0.236,0.539-0.371,0.864-0.371h13
	C1870.636,2934.996,1870.948,2935.131,1871.173,2935.367z"/>
<path fill="#AFC7D3" d="M1887.079,2943.984c-0.119,0-0.239-0.017-0.354-0.054l-4.637-1.436l0.331,6.616l4.659,2.082l4.658-2.082
	l0.33-6.616l-4.637,1.436C1887.316,2943.967,1887.198,2943.984,1887.079,2943.984z"/>
<path fill="#3F352F" d="M1856.445,2935.367c-0.225,0.237-0.343,0.557-0.327,0.882l0.687,13.71c0.022,0.448,0.295,0.846,0.705,1.029
	l5.812,2.598c0.159,0.071,0.324,0.104,0.486,0.104c0.17,0,0.335-0.036,0.488-0.104l0,0l5.813-2.598
	c0.41-0.183,0.682-0.582,0.704-1.029l0.687-13.71c0.017-0.325-0.102-0.645-0.327-0.882c-0.226-0.236-0.537-0.371-0.864-0.371h-13
	C1856.983,2934.996,1856.669,2935.131,1856.445,2935.367z M1868.467,2949.11l-4.658,2.082l-4.657-2.082l-0.331-6.616l4.637,1.436
	c0.113,0.037,0.232,0.054,0.352,0.054c0.12,0,0.239-0.017,0.354-0.054l4.637-1.436L1868.467,2949.11z M1869.055,2937.382
	l-0.129,2.575l-5.117,1.585l-5.116-1.585l-0.129-2.575H1869.055z"/>
<path fill="#3F352F" d="M1863.809,2940.571c0.314,0,0.623-0.126,0.845-0.352c0.222-0.222,0.349-0.526,0.349-0.842
	c0-0.312-0.127-0.619-0.349-0.845c-0.222-0.222-0.53-0.348-0.845-0.348c-0.315,0-0.623,0.126-0.843,0.348
	c-0.224,0.223-0.35,0.53-0.35,0.845c0,0.315,0.126,0.624,0.35,0.842C1863.188,2940.445,1863.495,2940.571,1863.809,2940.571z"/>
<path fill="#3F352F" d="M1893.578,2934.996h-13c-0.327,0-0.64,0.135-0.864,0.371c-0.225,0.237-0.344,0.557-0.326,0.882l0.686,13.71
	c0.022,0.448,0.295,0.846,0.704,1.029l5.813,2.598h0.001c0.152,0.068,0.317,0.104,0.487,0.104c0.163,0,0.328-0.033,0.486-0.104
	l5.813-2.598c0.409-0.183,0.681-0.582,0.704-1.029l0.688-13.71c0.016-0.325-0.104-0.645-0.327-0.882
	C1894.216,2935.131,1893.904,2934.996,1893.578,2934.996z M1891.737,2949.11l-4.658,2.082l-4.659-2.082l-0.331-6.616l4.637,1.436
	c0.113,0.037,0.233,0.054,0.354,0.054c0.119,0,0.237-0.017,0.352-0.054l4.637-1.436L1891.737,2949.11z M1892.195,2939.958
	l-5.116,1.585l-5.117-1.585l-0.129-2.575h10.491L1892.195,2939.958z"/>
<path fill="#3F352F" d="M1887.079,2940.571c0.312,0,0.619-0.126,0.841-0.349c0.225-0.225,0.352-0.532,0.352-0.845
	c0-0.314-0.127-0.622-0.352-0.845c-0.222-0.222-0.526-0.348-0.841-0.348c-0.316,0-0.624,0.126-0.846,0.348
	c-0.222,0.226-0.348,0.53-0.348,0.845c0,0.312,0.126,0.62,0.348,0.845C1886.455,2940.445,1886.762,2940.571,1887.079,2940.571z"/>
<path fill="#3F352F" d="M1911.756,2936.698c-2.035-5.582-2.965-8.129-4.1-12.336c-1.313-4.873-3.085-7.164-7.583-9.804
	c-4.84-2.84-8.636-3.809-9.907-4.076l-4.944-5.848c-0.229-0.271-0.565-0.42-0.911-0.42v-0.004h-17.734v0.004
	c-0.348,0-0.682,0.148-0.911,0.42l-4.944,5.848c-1.272,0.267-5.067,1.235-9.908,4.077c-4.498,2.639-6.27,4.929-7.583,9.803
	c-1.135,4.208-2.064,6.756-4.102,12.339c-1.286,3.524-3.047,8.354-5.572,15.567c-0.107,0.306-0.085,0.645,0.063,0.935
	c0.147,0.29,0.407,0.507,0.718,0.601c0,0,11.746,3.746,12.833,3.812c0.422,0.027,0.825-0.225,1.04-0.608l2.989-5.326l-2.08,37.758
	c-0.008,0.126,0.006,0.254,0.039,0.375c0.106,0.395,2.873,9.65,26.285,9.65c23.411,0,26.178-9.256,26.285-9.65
	c0.032-0.121,0.046-0.25,0.039-0.375l-2.08-37.758l2.987,5.326c0.216,0.383,0.62,0.653,1.04,0.608
	c1.232-0.129,12.833-3.812,12.833-3.812c0.312-0.094,0.571-0.311,0.719-0.601c0.148-0.29,0.17-0.629,0.063-0.935
	C1914.805,2945.053,1913.043,2940.224,1911.756,2936.698z M1890.258,2912.955c1.495,0.375,4.693,1.364,8.607,3.66
	c1.236,0.727,2.222,1.401,3.028,2.117c-1.265,1.63-2.235,3.434-2.981,5.244h-8.821l-3.13-3.811
	C1887.299,2919.446,1889.326,2915.23,1890.258,2912.955z M1884.875,2907.92l3.276,3.876c-0.962,2.369-3.491,7.627-4.223,9.245
	l-1.916-2.06C1883.42,2913.48,1884.342,2909.945,1884.875,2907.92z M1882.757,2906.598c-0.201,0.757-0.481,1.821-0.849,3.234
	h-12.931c-0.368-1.413-0.648-2.477-0.849-3.234H1882.757z M1866.011,2907.92c0.533,2.024,1.456,5.559,2.861,11.062l-1.915,2.06
	c-0.732-1.618-3.261-6.876-4.223-9.245L1866.011,2907.92z M1852.022,2916.615c3.913-2.296,7.111-3.285,8.608-3.66
	c0.93,2.274,2.959,6.494,3.299,7.218l-3.134,3.803h-8.821c-0.746-1.811-1.718-3.614-2.981-5.244
	C1849.798,2918.017,1850.784,2917.342,1852.022,2916.615z M1836.221,2951.88c1.159-3.303,2.15-6.079,3.002-8.447l1.226,0.352
	l-2.983,8.469L1836.221,2951.88z M1846.598,2955.004l-6.845-2.061l1.607-4.566l7.689,2.258L1846.598,2955.004z M1850.249,2948.5
	l-8.095-2.376l0.965-2.743c0.11-0.31,0.085-0.652-0.064-0.944c-0.151-0.292-0.417-0.509-0.732-0.6l-2.285-0.654
	c0.495-1.366,0.938-2.579,1.334-3.666c2.061-5.648,3.001-8.227,4.162-12.534c0.503-1.865,1.054-3.257,1.845-4.428
	c4.496,6.145,4.67,15.088,4.677,15.607l-0.558,10.111L1850.249,2948.5z M1874.25,2997.07c-18.705-0.266-22.29-6.732-22.735-7.745
	l2.923-53.07c0.001-0.012-0.025-4.867-1.604-9.895h8.525c0.356,0,0.693-0.159,0.92-0.434l2.756-3.344
	c0.151,0.338,0.309,0.692,0.476,1.071c0.162,0.366,0.497,0.628,0.894,0.695c0.064,0.011,0.132,0.016,0.197,0.016
	c0.329,0,0.646-0.135,0.874-0.38l2.742-2.946l4.031,4.057L1874.25,2997.07L1874.25,2997.07z M1871.266,2918.708
	c-0.656-2.567-1.208-4.713-1.668-6.49h11.69c-0.459,1.776-1.012,3.922-1.668,6.49l-4.177,4.203L1871.266,2918.708z
	 M1876.636,2997.07v-6.345c0.056,0.106,0.122,0.207,0.208,0.292c0.223,0.222,0.529,0.349,0.842,0.349
	c0.314,0,0.623-0.127,0.846-0.349c0.221-0.223,0.348-0.531,0.348-0.846c0-0.312-0.127-0.62-0.348-0.841
	c-0.223-0.222-0.531-0.351-0.846-0.351c-0.312,0-0.621,0.129-0.842,0.351c-0.086,0.084-0.152,0.186-0.208,0.291v-6.765
	c0.056,0.106,0.122,0.207,0.208,0.292c0.223,0.223,0.529,0.348,0.842,0.348c0.314,0,0.623-0.125,0.846-0.348
	c0.221-0.224,0.348-0.529,0.348-0.844c0-0.312-0.127-0.621-0.348-0.843c-0.223-0.221-0.531-0.35-0.846-0.35
	c-0.312,0-0.621,0.129-0.842,0.35c-0.086,0.084-0.152,0.185-0.208,0.291v-6.766c0.056,0.105,0.122,0.206,0.208,0.292
	c0.223,0.225,0.529,0.35,0.842,0.35c0.314,0,0.623-0.125,0.846-0.35c0.221-0.223,0.348-0.531,0.348-0.842
	c0-0.315-0.127-0.621-0.348-0.845c-0.223-0.222-0.531-0.349-0.846-0.349s-0.621,0.127-0.842,0.349
	c-0.086,0.086-0.152,0.186-0.208,0.292v-6.766c0.056,0.107,0.122,0.207,0.208,0.292c0.223,0.222,0.529,0.351,0.842,0.351
	c0.314,0,0.623-0.129,0.846-0.351c0.221-0.222,0.348-0.53,0.348-0.843c0-0.314-0.127-0.622-0.348-0.844
	c-0.223-0.221-0.531-0.347-0.846-0.347s-0.621,0.126-0.842,0.347c-0.086,0.085-0.152,0.186-0.208,0.292v-6.765
	c0.056,0.107,0.122,0.207,0.208,0.292c0.223,0.223,0.529,0.349,0.842,0.349c0.314,0,0.623-0.126,0.846-0.349
	c0.221-0.223,0.348-0.529,0.348-0.844c0-0.313-0.127-0.621-0.348-0.843c-0.223-0.222-0.531-0.351-0.846-0.351
	c-0.312,0-0.621,0.129-0.842,0.351c-0.086,0.086-0.152,0.187-0.208,0.292v-6.765c0.056,0.107,0.122,0.206,0.208,0.292
	c0.223,0.221,0.529,0.348,0.842,0.348c0.314,0,0.623-0.127,0.846-0.348c0.221-0.222,0.348-0.529,0.348-0.845
	c0-0.313-0.127-0.62-0.348-0.841c-0.223-0.222-0.531-0.351-0.846-0.351c-0.312,0-0.621,0.128-0.842,0.351
	c-0.086,0.085-0.152,0.186-0.208,0.29v-6.765c0.056,0.106,0.122,0.207,0.208,0.292c0.223,0.222,0.529,0.349,0.842,0.349
	c0.314,0,0.623-0.126,0.846-0.349c0.221-0.224,0.348-0.532,0.348-0.844c0-0.313-0.127-0.62-0.348-0.842
	c-0.223-0.225-0.531-0.352-0.846-0.352c-0.312,0-0.621,0.126-0.842,0.352c-0.086,0.084-0.152,0.185-0.208,0.29v-6.767
	c0.056,0.106,0.122,0.205,0.208,0.292c0.223,0.224,0.529,0.35,0.842,0.35c0.314,0,0.623-0.129,0.846-0.35
	c0.221-0.223,0.348-0.531,0.348-0.844c0-0.314-0.127-0.622-0.348-0.843c-0.223-0.223-0.531-0.349-0.846-0.349
	s-0.621,0.125-0.842,0.349c-0.086,0.084-0.152,0.185-0.208,0.291v-6.766c0.056,0.106,0.122,0.207,0.208,0.291
	c0.223,0.223,0.529,0.351,0.842,0.351c0.314,0,0.623-0.128,0.846-0.351c0.221-0.221,0.348-0.528,0.348-0.842
	s-0.127-0.622-0.348-0.845c-0.223-0.221-0.531-0.35-0.846-0.35c-0.312,0-0.621,0.129-0.842,0.35
	c-0.086,0.086-0.152,0.186-0.208,0.293v-1.572l4.032-4.058l2.742,2.947c0.228,0.244,0.544,0.381,0.873,0.381
	c0.065,0,0.133-0.006,0.199-0.017c0.396-0.067,0.73-0.329,0.893-0.696c0.167-0.38,0.326-0.736,0.479-1.076l2.752,3.348
	c0.227,0.276,0.564,0.436,0.921,0.436h8.525c-1.577,5.027-1.604,9.883-1.604,9.894l2.924,53.071
	C1898.924,2990.341,1895.313,2996.805,1876.636,2997.07z M1899.39,2946.274l-0.557-10.112c0.005-0.521,0.168-9.452,4.675-15.608
	c0.793,1.173,1.343,2.565,1.845,4.43c1.161,4.306,2.102,6.884,4.162,12.53c0.397,1.089,0.84,2.303,1.336,3.67l-2.286,0.654
	c-0.316,0.091-0.581,0.307-0.732,0.6c-0.15,0.291-0.174,0.633-0.064,0.943l0.965,2.743l-8.094,2.376L1899.39,2946.274z
	 M1904.288,2955.004l-2.451-4.368l7.69-2.258l1.606,4.566L1904.288,2955.004z M1913.42,2952.254l-2.981-8.47l1.225-0.351
	c0.852,2.368,1.843,5.144,3.003,8.447L1913.42,2952.254z"/>
</svg>
