<?xml version="1.0" encoding="utf-8"?>
<!-- Generator: Adobe Illustrator 14.0.0, SVG Export Plug-In  -->
<!DOCTYPE svg PUBLIC "-//W3C//DTD SVG 1.1//EN" "http://www.w3.org/Graphics/SVG/1.1/DTD/svg11.dtd" [
	<!ENTITY ns_flows "http://ns.adobe.com/Flows/1.0/">
]>
<svg version="1.1"
	 xmlns="http://www.w3.org/2000/svg" xmlns:xlink="http://www.w3.org/1999/xlink" xmlns:a="http://ns.adobe.com/AdobeSVGViewerExtensions/3.0/"
	 x="0px" y="0px" width="70px" height="70px" viewBox="97.35 11063.787 70 70" enable-background="new 97.35 11063.787 70 70"
	 xml:space="preserve">
<defs>
</defs>
<rect x="0.032" y="10893.032" display="none" fill="none" stroke="#787878" stroke-width="0.0646" stroke-miterlimit="10" width="422.892" height="438.896"/>
<rect x="65.517" y="11105.047" display="none" opacity="0" fill="#FFFFFF" width="328.916" height="117.98"/>
<text transform="matrix(1 0 0 1 65.5146 11134.043)" display="none" fill="#363636" font-family="'Arial-BoldMT'" font-size="31.9915">Esta é a </text>
<g display="none">
	<defs>
		<path id="SVGID_9_" d="M883.297,12366.721c-1.657,0-2.986-1.34-2.986-3v-38.992c0-1.664,1.329-3.004,2.986-3.004h144.96
			c1.662,0,3.006,1.34,3.006,3.004v38.992c0,1.66-1.344,3-3.006,3H883.297"/>
	</defs>
	<clipPath id="SVGID_13_" display="inline">
		<use xlink:href="#SVGID_9_"  display="none" overflow="visible"/>
	</clipPath>
	<g clip-path="url(#SVGID_13_)">
		<defs>
			<rect id="SVGID_11_" x="19.533" width="8947.064" height="12761.611"/>
		</defs>
		<clipPath id="SVGID_15_" display="inline">
			<use xlink:href="#SVGID_11_"  display="none" overflow="visible"/>
		</clipPath>
	</g>
</g>
<rect x="20.529" y="10618.178" display="none" fill="#FFFFFF" width="1197.669" height="447.882"/>
<rect x="20.013" y="10617.68" display="none" fill="none" stroke="#787878" stroke-width="0.0646" stroke-miterlimit="10" width="1198.703" height="448.878"/>
<line display="none" fill="none" stroke="#787878" stroke-width="0.0646" stroke-miterlimit="10" x1="20.013" y1="10617.68" x2="1218.715" y2="11066.559"/>
<line display="none" fill="none" stroke="#787878" stroke-width="0.0646" stroke-miterlimit="10" x1="1218.715" y1="10617.68" x2="20.013" y2="11066.559"/>
<rect x="20.529" y="10618.178" display="none" fill="#FFFFFF" width="1197.669" height="447.882"/>
<path fill="#1E9ABA" stroke="#000000" stroke-width="6" d="M162.401,11120.861v0.018c-6.079,5.514-14.149,8.871-23,8.871
	c-8.854,0-16.923-3.357-23.003-8.871v-0.012c0-9.176,5.366-17.092,13.127-20.785c2.917,2.91,6.332,4.477,9.876,4.477
	c3.544,0,6.958-1.566,9.876-4.477C157.039,11103.775,162.401,11111.691,162.401,11120.861z"/>
<path fill="#F0C493" stroke="#000000" stroke-width="6" d="M139.401,11071.119c7.026,0,12.723,5.697,12.723,12.723
	c0,7.029-5.696,16.639-12.723,16.639c-7.027,0-12.724-9.609-12.724-16.639C126.677,11076.816,132.374,11071.119,139.401,11071.119z"
	/>
<path fill="#E3806F" stroke="#000000" stroke-width="6" d="M128.678,11096.008c0.39,0.555,0.794,1.076,1.211,1.566l-1.27,0.604
	c-4.226,2.01-7.8,5.156-10.341,9.096c-2.066,3.207-3.361,6.82-3.812,10.59c-4.591-1.252-8.742-3.572-12.168-6.68v-0.016
	c0-7.99,4.676-14.887,11.438-18.107c2.542,2.535,5.518,3.902,8.605,3.902c2.022,0,3.998-0.586,5.833-1.703
	C128.337,11095.512,128.506,11095.762,128.678,11096.008z"/>
<path fill="#E3B990" stroke="#000000" stroke-width="6" d="M124.57,11083.842c0,2.643,0.687,5.547,1.909,8.279
	c-1.279,0.811-2.675,1.289-4.136,1.289c-6.123,0-11.086-8.375-11.086-14.5c0-6.123,4.963-11.086,11.086-11.086
	c3.396,0,6.436,1.527,8.469,3.932C127.037,11074.449,124.57,11078.863,124.57,11083.842z"/>
<path fill="#1E9ABA" d="M162.401,11120.861v0.018c-6.079,5.514-14.149,8.871-23,8.871c-8.854,0-16.923-3.357-23.003-8.871v-0.012
	c0-9.176,5.366-17.092,13.127-20.785c2.917,2.91,6.332,4.477,9.876,4.477c3.544,0,6.958-1.566,9.876-4.477
	C157.039,11103.775,162.401,11111.691,162.401,11120.861z"/>
<path fill="#F0C493" d="M139.401,11071.119c7.026,0,12.723,5.697,12.723,12.723c0,7.029-5.696,16.639-12.723,16.639
	c-7.027,0-12.724-9.609-12.724-16.639C126.677,11076.816,132.374,11071.119,139.401,11071.119z"/>
<path fill="#E3806F" d="M128.678,11096.008c0.39,0.555,0.794,1.076,1.211,1.566l-1.27,0.604c-4.226,2.01-7.8,5.156-10.341,9.096
	c-2.066,3.207-3.361,6.82-3.812,10.59c-4.591-1.252-8.742-3.572-12.168-6.68v-0.016c0-7.99,4.676-14.887,11.438-18.107
	c2.542,2.535,5.518,3.902,8.605,3.902c2.022,0,3.998-0.586,5.833-1.703C128.337,11095.512,128.506,11095.762,128.678,11096.008z"/>
<path fill="#E3B990" d="M124.57,11083.842c0,2.643,0.687,5.547,1.909,8.279c-1.279,0.811-2.675,1.289-4.136,1.289
	c-6.123,0-11.086-8.375-11.086-14.5c0-6.123,4.963-11.086,11.086-11.086c3.396,0,6.436,1.527,8.469,3.932
	C127.037,11074.449,124.57,11078.863,124.57,11083.842z"/>
</svg>
