<?xml version="1.0" encoding="utf-8"?>
<!-- Generator: Adobe Illustrator 14.0.0, SVG Export Plug-In  -->
<!DOCTYPE svg PUBLIC "-//W3C//DTD SVG 1.1//EN" "http://www.w3.org/Graphics/SVG/1.1/DTD/svg11.dtd" [
	<!ENTITY ns_flows "http://ns.adobe.com/Flows/1.0/">
]>
<svg version="1.1"
	 xmlns="http://www.w3.org/2000/svg" xmlns:xlink="http://www.w3.org/1999/xlink" xmlns:a="http://ns.adobe.com/AdobeSVGViewerExtensions/3.0/"
	 x="0px" y="0px" width="130px" height="130px" viewBox="4296.944 2920.363 130 130"
	 enable-background="new 4296.944 2920.363 130 130" xml:space="preserve">
<defs>
</defs>
<g display="none">
	<defs>
		<path id="SVGID_5_" d="M863.765,12366.721c-1.657,0-2.986-1.34-2.986-3v-38.992c0-1.664,1.329-3.004,2.986-3.004h144.96
			c1.662,0,3.006,1.34,3.006,3.004v38.992c0,1.66-1.344,3-3.006,3H863.765"/>
	</defs>
	<clipPath id="SVGID_9_" display="inline">
		<use xlink:href="#SVGID_5_"  display="none" overflow="visible"/>
	</clipPath>
	<g clip-path="url(#SVGID_9_)">
		<defs>
			<rect id="SVGID_7_" x="0" width="8947.064" height="12761.611"/>
		</defs>
		<clipPath id="SVGID_11_" display="inline">
			<use xlink:href="#SVGID_7_"  display="none" overflow="visible"/>
		</clipPath>
	</g>
</g>
<path fill="#28406F" d="M4361.941,3047.863c-35.005,0-62.497-27.501-62.497-62.503c0-34.995,27.492-62.497,62.497-62.497
	c35.008,0,62.503,27.502,62.503,62.497C4424.444,3020.362,4396.949,3047.863,4361.941,3047.863"/>
<polygon fill="#556080" points="4403.827,2950.564 4403.827,2944.885 4321.473,2944.885 4321.473,2951.984 4321.473,2951.984 
	4321.473,3027.239 4403.828,3027.239 4403.828,2950.564 "/>
<path fill="#2C2F38" d="M4400.448,2963.344h-75.596c-1.867,0-3.379,1.514-3.379,3.38v15.96c0,1.866,1.512,3.378,3.379,3.378h2.301
	v-5.679v-7.1h70.994v7.1v5.679h2.301c1.865,0,3.379-1.512,3.379-3.378v-15.96
	C4403.827,2964.857,4402.315,2963.344,4400.448,2963.344z"/>
<path fill="#E0E4E5" d="M4400.448,2957.664h-75.596c-1.867,0-3.379,1.513-3.379,3.38v5.679c0-1.866,1.512-3.38,3.379-3.38h2.301
	h70.994h2.301c1.865,0,3.379,1.512,3.379,3.38v-5.679C4403.827,2959.177,4402.315,2957.664,4400.448,2957.664z"/>
<path fill="#B1B7BB" d="M4400.448,2963.344h-75.596c-1.867,0-3.379,1.514-3.379,3.38v6.56h82.354v-6.56
	C4403.827,2964.857,4402.315,2963.344,4400.448,2963.344z"/>
<path fill="#DCDCC7" d="M4379.688,2984.643c0,9.409-7.629,17.039-17.038,17.039c-9.41,0-17.039-7.629-17.039-17.039
	c0-1.997,0.36-3.904,0.995-5.68h-19.453v31.238h70.994v-31.238h-19.453C4379.328,2980.74,4379.688,2982.646,4379.688,2984.643z"/>
<path fill="#6D8060" d="M4365.904,2987.706c0.364-0.43,0.531-0.986,0.47-1.569c-0.064-0.622-0.386-1.203-0.883-1.587l-1.421-1.106
	v5.506C4364.77,2988.7,4365.411,2988.292,4365.904,2987.706z"/>
<path fill="#6D8060" d="M4364.07,2979.847l3.165,2.462c1.104,0.857,1.818,2.146,1.963,3.532c0.143,1.359-0.258,2.672-1.125,3.7
	c-1.043,1.23-2.455,2.052-4.003,2.367v1.253c0,0.785-0.636,1.42-1.42,1.42s-1.42-0.635-1.42-1.42v-1.246
	c-3.236-0.661-5.68-3.528-5.68-6.957c0-0.786,0.636-1.419,1.42-1.419c0.783,0,1.42,0.633,1.42,1.419c0,1.849,1.191,3.411,2.84,3.999
	v-7.724l-2.921-2.272h-11.703c-0.635,1.777-0.995,3.684-0.995,5.68c0,9.409,7.629,17.039,17.039,17.039
	c9.409,0,17.038-7.629,17.038-17.039c0-1.997-0.36-3.904-0.994-5.68h-14.624V2979.847z"/>
<path fill="#DCDCC7" d="M4365.491,2984.55c0.496,0.385,0.818,0.966,0.883,1.587c0.062,0.583-0.105,1.14-0.47,1.569
	c-0.493,0.584-1.134,0.993-1.834,1.243v2.959c1.548-0.315,2.96-1.137,4.003-2.367c0.867-1.029,1.268-2.341,1.125-3.7
	c-0.146-1.388-0.859-2.676-1.963-3.532l-3.165-2.462v3.597L4365.491,2984.55z"/>
<polygon fill="#DCDCC7" points="4361.23,2978.962 4358.309,2978.962 4361.23,2981.234 "/>
<path fill="#DCDCC7" d="M4358.39,2984.959c0-0.786-0.637-1.419-1.42-1.419c-0.784,0-1.42,0.633-1.42,1.419
	c0,3.428,2.443,6.296,5.68,6.957v-2.958C4359.582,2988.369,4358.39,2986.808,4358.39,2984.959z"/>
<path fill="#DCDCC7" d="M4361.23,2991.916v1.246c0,0.785,0.636,1.42,1.42,1.42s1.42-0.635,1.42-1.42v-1.253
	c-0.463,0.096-0.938,0.148-1.42,0.148C4362.165,2992.059,4361.688,2992.009,4361.23,2991.916z"/>
<polygon fill="#DCDCC7" points="4364.07,2978.962 4362.932,2978.962 4364.07,2979.847 "/>
<path fill="#DCDCC7" d="M4364.07,2988.949v-5.506l-2.84-2.208v7.722c0.445,0.159,0.921,0.261,1.42,0.261
	C4363.143,2989.219,4363.618,2989.111,4364.07,2988.949z"/>
<polygon fill="#DCDCC7" points="4364.07,2983.444 4364.07,2979.847 4362.932,2978.962 4361.23,2978.962 4361.23,2981.234 "/>
<path fill="#DCDCC7" d="M4362.65,2989.219c-0.499,0-0.975-0.103-1.42-0.261v2.958c0.458,0.093,0.935,0.143,1.42,0.143
	c0.481,0,0.957-0.054,1.42-0.147v-2.961C4363.618,2989.111,4363.143,2989.219,4362.65,2989.219z"/>
<path fill="#A9A78E" d="M4327.153,2978.962h19.453c0.754-2.114,1.9-4.041,3.369-5.679h-22.822V2978.962z"/>
<path fill="#A9A78E" d="M4375.324,2973.283c1.47,1.638,2.615,3.565,3.37,5.679h19.453v-5.679H4375.324z"/>
<path fill="#3A4C31" d="M4359.09,2973.859c-0.404,0.911-0.102,2.035,0.717,2.672l1.423,1.106v-4.355h-2.022
	C4359.208,2973.476,4359.174,2973.672,4359.09,2973.859z"/>
<path fill="#3A4C31" d="M4375.324,2973.283h-11.254v5.679h14.624C4377.939,2976.851,4376.793,2974.921,4375.324,2973.283z"/>
<path fill="#3A4C31" d="M4356.299,2973.283h-6.324c-1.469,1.638-2.615,3.565-3.369,5.679h11.703l-0.244-0.189
	C4356.393,2977.474,4355.711,2975.247,4356.299,2973.283z"/>
<path fill="#A9A78E" d="M4361.23,2973.283v4.355l-1.421-1.106c-0.82-0.638-1.122-1.762-0.718-2.672
	c0.084-0.187,0.118-0.383,0.118-0.576h-2.91c-0.587,1.964,0.096,4.19,1.768,5.49l0.242,0.189h2.921h1.702h1.138v-5.679H4361.23z"/>
<rect x="4327.153" y="3010.201" fill="#C2C1A6" width="70.994" height="4.259"/>
<rect x="4327.153" y="3014.46" fill="#A9A78E" width="70.994" height="4.26"/>
<path fill="#6D8060" d="M4335.672,3010.201h-8.52v-8.52l0,0C4331.858,3001.681,4335.672,3005.496,4335.672,3010.201
	L4335.672,3010.201z"/>
<path fill="#6D8060" d="M4398.147,3010.201h-8.52l0,0c0-4.705,3.814-8.52,8.52-8.52l0,0V3010.201z"/>
<rect x="4327.153" y="3010.201" fill="#516B45" width="8.52" height="4.259"/>
<rect x="4327.153" y="3014.46" fill="#3A4C31" width="8.52" height="4.26"/>
<rect x="4389.627" y="3010.201" fill="#516B45" width="8.52" height="4.259"/>
<rect x="4389.627" y="3014.46" fill="#3A4C31" width="8.52" height="4.26"/>
</svg>
