<?xml version="1.0" encoding="utf-8"?>
<!-- Generator: Adobe Illustrator 14.0.0, SVG Export Plug-In  -->
<!DOCTYPE svg PUBLIC "-//W3C//DTD SVG 1.1//EN" "http://www.w3.org/Graphics/SVG/1.1/DTD/svg11.dtd" [
	<!ENTITY ns_flows "http://ns.adobe.com/Flows/1.0/">
]>
<svg version="1.1"
	 xmlns="http://www.w3.org/2000/svg" xmlns:xlink="http://www.w3.org/1999/xlink" xmlns:a="http://ns.adobe.com/AdobeSVGViewerExtensions/3.0/"
	 x="0px" y="0px" width="130px" height="130px" viewBox="3487.944 2920.363 130 130"
	 enable-background="new 3487.944 2920.363 130 130" xml:space="preserve">
<defs>
</defs>
<g display="none">
	<defs>
		<path id="SVGID_5_" d="M863.765,12366.721c-1.657,0-2.986-1.34-2.986-3v-38.992c0-1.664,1.329-3.004,2.986-3.004h144.96
			c1.662,0,3.006,1.34,3.006,3.004v38.992c0,1.66-1.344,3-3.006,3H863.765"/>
	</defs>
	<clipPath id="SVGID_9_" display="inline">
		<use xlink:href="#SVGID_5_"  display="none" overflow="visible"/>
	</clipPath>
	<g clip-path="url(#SVGID_9_)">
		<defs>
			<rect id="SVGID_7_" x="0" width="8947.064" height="12761.611"/>
		</defs>
		<clipPath id="SVGID_11_" display="inline">
			<use xlink:href="#SVGID_7_"  display="none" overflow="visible"/>
		</clipPath>
	</g>
</g>
<path fill="#28406F" d="M3552.941,3047.863c-35.005,0-62.497-27.501-62.497-62.503c0-34.995,27.492-62.497,62.497-62.497
	c35.008,0,62.503,27.502,62.503,62.497C3615.444,3020.362,3587.949,3047.863,3552.941,3047.863"/>
<path fill="#EFB534" d="M3590.032,2954.27c-0.372-0.447-0.768-0.878-1.187-1.298s-0.852-0.813-1.298-1.187
	c-9.587-8-24.354-2.881-27.948,9.076c-1.98,6.588-5.567,15.329-11.111,18.316c2.019,1.801,4.046,3.707,6.064,5.726
	c2.883,2.882,5.539,5.787,7.964,8.648c2.869-5.672,11.76-9.329,18.439-11.335C3592.913,2978.624,3598.032,2963.855,3590.032,2954.27
	z"/>
<path fill="#98DC69" d="M3559.268,3005.459c-0.811,4.031-2.771,7.875-5.897,11.001c-8.438,8.438-22.119,8.438-30.558,0
	c-8.439-8.438-8.438-22.119,0-30.558c3.125-3.126,6.972-5.086,11.001-5.898l-4.429-6.263c-4.27,1.347-8.289,3.688-11.667,7.065
	c-11.232,11.232-11.232,29.511,0,40.743s29.511,11.232,40.743,0c3.378-3.378,5.719-7.396,7.065-11.666L3559.268,3005.459z"/>
<path fill="#EDD8B6" d="M3583.088,2961.77c-0.5,0-0.997-0.208-1.352-0.611c-3.439-3.913-8.262-3.913-11.701,0
	c-0.655,0.746-1.791,0.821-2.542,0.162c-0.747-0.657-0.819-1.794-0.162-2.542c2.39-2.715,5.427-4.211,8.555-4.211
	s6.165,1.497,8.555,4.211c0.657,0.748,0.583,1.885-0.162,2.542C3583.935,2961.622,3583.51,2961.77,3583.088,2961.77z"/>
<path fill="#2FADDD" d="M3562.518,2993.551c-2.427-2.863-5.081-5.766-7.964-8.648c-2.019-2.019-4.048-3.927-6.065-5.726
	c3.117-1.681,5.617-5.177,7.56-9.09c-14.323-12.422-27.77-18.854-31.963-14.662c-4.923,4.922,4.769,22.594,21.646,39.47
	c16.877,16.877,34.549,26.566,39.47,21.646c4.071-4.071-1.87-16.865-13.589-30.716
	C3567.652,2987.808,3564.131,2990.361,3562.518,2993.551z"/>
</svg>
