<?xml version="1.0" encoding="utf-8"?>
<!-- Generator: Adobe Illustrator 14.0.0, SVG Export Plug-In  -->
<!DOCTYPE svg PUBLIC "-//W3C//DTD SVG 1.1//EN" "http://www.w3.org/Graphics/SVG/1.1/DTD/svg11.dtd" [
	<!ENTITY ns_flows "http://ns.adobe.com/Flows/1.0/">
]>
<svg version="1.1"
	 xmlns="http://www.w3.org/2000/svg" xmlns:xlink="http://www.w3.org/1999/xlink" xmlns:a="http://ns.adobe.com/AdobeSVGViewerExtensions/3.0/"
	 x="0px" y="0px" width="130px" height="130px" viewBox="1811.637 3109.624 130 130"
	 enable-background="new 1811.637 3109.624 130 130" xml:space="preserve">
<defs>
</defs>
<g display="none">
	<defs>
		<path id="SVGID_5_" d="M863.765,12366.721c-1.657,0-2.986-1.34-2.986-3v-38.992c0-1.664,1.329-3.004,2.986-3.004h144.96
			c1.662,0,3.006,1.34,3.006,3.004v38.992c0,1.66-1.344,3-3.006,3H863.765"/>
	</defs>
	<clipPath id="SVGID_9_" display="inline">
		<use xlink:href="#SVGID_5_"  display="none" overflow="visible"/>
	</clipPath>
	<g clip-path="url(#SVGID_9_)">
		<defs>
			<rect id="SVGID_7_" x="0" width="8947.064" height="12761.611"/>
		</defs>
		<clipPath id="SVGID_11_" display="inline">
			<use xlink:href="#SVGID_7_"  display="none" overflow="visible"/>
		</clipPath>
	</g>
</g>
<path fill="#28406F" d="M1876.634,3236.624c-35.005,0-62.497-27.28-62.497-62.003c0-34.714,27.492-61.997,62.497-61.997
	c35.007,0,62.503,27.282,62.503,61.997C1939.137,3209.344,1911.641,3236.624,1876.634,3236.624"/>
<path fill="#BFD7D7" d="M1886.458,3218.958l19.644-19.483l-4.911-34.096l7.297,3.618c1.442,0.716,3.195,0.254,4.09-1.077
	l6.801-10.119c0.847-1.258,0.68-2.934-0.398-4.002l-6.074-6.025c-4.475-4.438-9.93-7.782-15.934-9.768l-5.602-1.853h-29.464
	l-5.604,1.853c-6.003,1.984-11.458,5.329-15.933,9.768l-6.074,6.025c-1.078,1.068-1.244,2.744-0.399,4.002l6.802,10.119
	c0.895,1.331,2.648,1.793,4.09,1.077l7.297-3.618l-4.91,34.096l19.643,19.483H1886.458z"/>
<path fill="#B1B7BB" d="M1834.407,3158.56l5.963-5.916c4.475-4.438,9.929-7.782,15.933-9.768l5.603-1.853h29.464l5.603,1.853
	c6.004,1.985,11.459,5.329,15.934,9.768l5.963,5.916l0.51-0.759c0.846-1.258,0.679-2.934-0.399-4.002l-6.073-6.025
	c-4.475-4.438-9.93-7.782-15.934-9.768l-5.603-1.853h-29.463l-5.604,1.853c-6.003,1.985-11.458,5.329-15.933,9.768l-6.074,6.025
	c-1.078,1.068-1.244,2.744-0.399,4.002L1834.407,3158.56z"/>
<path fill="#5B5869" d="M1891.37,3136.153c0,8.07-6.597,14.613-14.732,14.613s-14.731-6.542-14.731-14.613"/>
<path fill="#5B5869" d="M1904.873,3199.475c-10.17,0-18.415,8.178-18.415,18.266c0,0.396,0.018,0.787,0.043,1.176l19.559-19.4
	C1905.667,3199.492,1905.272,3199.475,1904.873,3199.475z"/>
<path fill="#B1B7BB" d="M1886.586,3218.83c0.836-8.685,7.802-15.595,16.559-16.423l2.914-2.891
	c-0.393-0.024-0.787-0.042-1.186-0.042c-10.17,0-18.415,8.178-18.415,18.267c0,0.395,0.017,0.786,0.042,1.175L1886.586,3218.83z"/>
<path fill="#5B5869" d="M1866.817,3217.74c0-10.088-8.245-18.266-18.415-18.266c-0.399,0-0.793,0.018-1.186,0.041l19.558,19.4
	C1866.798,3218.527,1866.817,3218.136,1866.817,3217.74z"/>
<path fill="#B1B7BB" d="M1866.737,3218.879l0.037,0.037c0.025-0.389,0.043-0.78,0.043-1.175c0-10.089-8.245-18.267-18.415-18.267
	c-0.399,0-0.793,0.018-1.186,0.042l2.864,2.842C1858.91,3203.15,1865.937,3210.122,1866.737,3218.879z"/>
<ellipse fill="#FFFFFF" cx="1876.637" cy="3170.25" rx="14.732" ry="14.612"/>
<path fill="#E76E80" d="M1886.458,3169.47c0-2.953-2.197-4.871-4.91-4.871c-2.711,0-4.91,2.181-4.91,4.871
	c0-2.69-2.199-4.871-4.911-4.871s-4.911,1.771-4.911,4.871c0,5.019,9.822,9.743,9.822,9.743S1886.458,3174.636,1886.458,3169.47z"/>
<path fill="#B1B7BB" d="M1881.547,3164.6c-1.174,0-2.252,0.41-3.097,1.092c1.813,0.655,3.097,2.305,3.097,4.558
	c0,3.22-3.814,6.21-6.689,8.006c1.054,0.606,1.779,0.957,1.779,0.957s9.82-4.576,9.82-9.742
	C1886.458,3166.518,1884.26,3164.6,1881.547,3164.6z"/>
</svg>
