<?xml version="1.0" encoding="utf-8"?>
<!-- Generator: Adobe Illustrator 14.0.0, SVG Export Plug-In  -->
<!DOCTYPE svg PUBLIC "-//W3C//DTD SVG 1.1//EN" "http://www.w3.org/Graphics/SVG/1.1/DTD/svg11.dtd" [
	<!ENTITY ns_flows "http://ns.adobe.com/Flows/1.0/">
]>
<svg version="1.1"
	 xmlns="http://www.w3.org/2000/svg" xmlns:xlink="http://www.w3.org/1999/xlink" xmlns:a="http://ns.adobe.com/AdobeSVGViewerExtensions/3.0/"
	 x="0px" y="0px" width="130px" height="130px" viewBox="1826.37 2483.402 130 130"
	 enable-background="new 1826.37 2483.402 130 130" xml:space="preserve">
<defs>
</defs>
<g display="none">
	<defs>
		<path id="SVGID_5_" d="M863.765,12366.721c-1.657,0-2.986-1.34-2.986-3v-38.992c0-1.664,1.329-3.004,2.986-3.004h144.96
			c1.662,0,3.006,1.34,3.006,3.004v38.992c0,1.66-1.344,3-3.006,3H863.765"/>
	</defs>
	<clipPath id="SVGID_9_" display="inline">
		<use xlink:href="#SVGID_5_"  display="none" overflow="visible"/>
	</clipPath>
	<g clip-path="url(#SVGID_9_)">
		<defs>
			<rect id="SVGID_7_" x="0" width="8947.064" height="12761.611"/>
		</defs>
		<clipPath id="SVGID_11_" display="inline">
			<use xlink:href="#SVGID_7_"  display="none" overflow="visible"/>
		</clipPath>
	</g>
</g>
<path fill="#28406F" d="M1891.366,2610.902c-35.004,0-62.496-27.5-62.496-62.503c0-34.995,27.492-62.497,62.496-62.497
	c35.008,0,62.504,27.502,62.504,62.497C1953.87,2583.402,1926.374,2610.902,1891.366,2610.902"/>
<polygon fill="#965425" points="1928.639,2539.972 1928.458,2536.891 1920.657,2536.891 1920.657,2546.139 1929.002,2546.139 "/>
<path fill="#A36328" d="M1928.458,2536.891l0.181,3.082l2.63,44.703c0.05,0.846,0.784,1.538,1.632,1.538s1.542-0.694,1.542-1.541
	v-44.7v-3.082H1928.458z"/>
<path fill="#E9A845" d="M1862.083,2530.725v16.955v1.541v1.542c0,0.851,0.689,1.542,1.541,1.542s1.541-0.69,1.541-1.542l0,0
	c0-0.852,0.69-1.542,1.542-1.542l0,0c0.851,0,1.541,0.69,1.541,1.542l0,0c0,0.851,0.689,1.542,1.541,1.542
	c0.853,0,1.542-0.69,1.542-1.542l0,0c0-0.852,0.689-1.542,1.541-1.542l0,0c0.852,0,1.542,0.69,1.542,1.542l0,0
	c0,0.851,0.689,1.542,1.542,1.542c0.852,0,1.541-0.69,1.541-1.542l0,0c0-0.852,0.689-1.542,1.541-1.542l0,0
	c0.852,0,1.542,0.69,1.542,1.542l0,0c0,0.851,0.689,1.542,1.541,1.542c0.853,0,1.542-0.69,1.542-1.542l0,0
	c0-0.852,0.69-1.542,1.541-1.542l0,0c0.852,0,1.542,0.69,1.542,1.542l0,0c0,0.851,0.689,1.542,1.541,1.542
	c0.853,0,1.542-0.69,1.542-1.542l0,0c0-0.852,0.689-1.542,1.541-1.542l0,0c0.852,0,1.542,0.69,1.542,1.542l0,0
	c0,0.851,0.688,1.542,1.541,1.542c0.852,0,1.541-0.69,1.541-1.542l0,0c0-0.852,0.69-1.542,1.542-1.542l0,0
	c0.852,0,1.541,0.69,1.541,1.542l0,0c0,0.851,0.689,1.542,1.542,1.542c0.852,0,1.542-0.69,1.542-1.542l0,0
	c0-0.852,0.689-1.542,1.541-1.542l0,0c0.851,0,1.541,0.69,1.541,1.542l0,0c0,0.851,0.689,1.542,1.541,1.542
	c0.853,0,1.542-0.69,1.542-1.542l0,0c0-0.852,0.69-1.542,1.542-1.542l0,0c0.852,0,1.541,0.69,1.541,1.542l0,0
	c0,0.851,0.689,1.542,1.541,1.542c0.853,0,1.542-0.69,1.542-1.542l0,0c0-0.852,0.689-1.542,1.541-1.542l0,0
	c0.852,0,1.542,0.69,1.542,1.542l0,0c0,0.851,0.689,1.542,1.541,1.542c0.853,0,1.541-0.69,1.541-1.542v-1.542v-1.541v-16.955
	H1862.083z"/>
<polygon fill="#965425" points="1934.443,2539.972 1928.639,2539.972 1928.458,2536.891 1934.443,2536.891 "/>
<path fill="#A5B7C4" d="M1900.619,2519.935v-1.541h-10.79v10.789c0,0.852,0.689,1.541,1.541,1.541h7.707
	c0.852,0,1.542-0.689,1.542-1.541c2.553,0,4.624-2.07,4.624-4.625C1905.243,2522.006,1903.171,2519.935,1900.619,2519.935z
	 M1900.619,2527.502v-5.886c1.856,0,2.942,1.087,2.942,2.943C1903.561,2526.417,1902.475,2527.502,1900.619,2527.502z"/>
<polygon fill="#A5B7C4" points="1863.624,2526.101 1865.165,2529.184 1866.707,2529.184 1868.248,2530.725 1880.58,2530.725 
	1882.121,2529.184 1883.663,2529.184 1885.204,2526.101 "/>
<path fill="#82A1B2" d="M1895.781,2529.184h-5.952c0,0.756,0.784,1.541,1.541,1.541h7.879c0.756,0,1.37-0.613,1.37-1.37v-10.96
	h-0.686c-1.514,0-2.74,1.226-2.74,2.74v6.637C1897.193,2528.551,1896.561,2529.184,1895.781,2529.184z"/>
<polygon fill="#82A1B2" points="1878.524,2526.101 1877.497,2529.184 1875.184,2529.184 1874.414,2530.725 1880.58,2530.725 
	1882.121,2529.184 1883.663,2529.184 1885.204,2526.101 "/>
<path fill="#A36328" d="M1928.639,2539.972l2.63,44.703c0.05,0.846,0.784,1.538,1.632,1.538s1.542-0.694,1.542-1.541v-44.7H1928.639
	z"/>
<polygon fill="#7F4122" points="1920.657,2536.891 1920.657,2539.972 1928.639,2539.972 1928.458,2536.891 "/>
<polygon fill="#965425" points="1854.1,2539.972 1854.281,2536.891 1862.083,2536.891 1862.083,2546.139 1853.737,2546.139 "/>
<path fill="#A36328" d="M1854.281,2536.891l-0.181,3.082l-2.63,44.703c-0.05,0.846-0.784,1.538-1.632,1.538
	s-1.542-0.694-1.542-1.541v-44.7v-3.082H1854.281z"/>
<polygon fill="#965425" points="1848.296,2539.972 1854.1,2539.972 1854.281,2536.891 1848.296,2536.891 "/>
<path fill="#A36328" d="M1854.1,2539.972l-2.63,44.703c-0.05,0.846-0.784,1.538-1.632,1.538s-1.542-0.694-1.542-1.541v-44.7H1854.1z
	"/>
<polygon fill="#7F4122" points="1862.083,2536.891 1862.083,2539.972 1854.1,2539.972 1854.281,2536.891 "/>
<path fill="#A36328" d="M1862.083,2530.725h-18.498c-0.848,0-1.541,0.694-1.541,1.542v3.083c0,0.847,0.693,1.541,1.541,1.541h18.498
	V2530.725z"/>
<path fill="#A36328" d="M1939.155,2530.725h-18.498v6.166h18.498c0.848,0,1.542-0.694,1.542-1.541v-3.083
	C1940.697,2531.418,1940.002,2530.725,1939.155,2530.725z"/>
<path fill="#E48C20" d="M1885.204,2538.431c-0.851,0-1.541,0.691-1.541,1.542v10.79c0-0.852,0.69-1.542,1.541-1.542
	c0.852,0,1.542,0.69,1.542,1.542v-10.79C1886.746,2539.122,1886.055,2538.431,1885.204,2538.431L1885.204,2538.431z"/>
<path fill="#E48C20" d="M1891.37,2536.891c-0.852,0-1.541,0.689-1.541,1.54v12.332c0-0.852,0.689-1.542,1.541-1.542
	s1.542,0.69,1.542,1.542v-12.332C1892.912,2537.58,1892.221,2536.891,1891.37,2536.891L1891.37,2536.891z"/>
<path fill="#E48C20" d="M1872.872,2536.891c-0.852,0-1.541,0.689-1.541,1.54v12.332c0-0.852,0.689-1.542,1.541-1.542
	s1.542,0.69,1.542,1.542v-12.332C1874.414,2537.58,1873.723,2536.891,1872.872,2536.891L1872.872,2536.891z"/>
<path fill="#E48C20" d="M1879.038,2543.055c-0.852,0-1.541,0.69-1.541,1.542v6.166c0-0.852,0.689-1.542,1.541-1.542
	s1.542,0.69,1.542,1.542v-6.166C1880.58,2543.746,1879.889,2543.055,1879.038,2543.055L1879.038,2543.055z"/>
<path fill="#E48C20" d="M1909.868,2541.514c-0.852,0-1.542,0.69-1.542,1.541v7.707c0-0.852,0.69-1.542,1.542-1.542
	s1.541,0.69,1.541,1.542v-7.707C1911.409,2542.204,1910.719,2541.514,1909.868,2541.514L1909.868,2541.514z"/>
<path fill="#E48C20" d="M1916.033,2538.431c-0.852,0-1.541,0.691-1.541,1.542v10.79c0-0.852,0.689-1.542,1.541-1.542
	s1.542,0.69,1.542,1.542v-10.79C1917.575,2539.122,1916.884,2538.431,1916.033,2538.431L1916.033,2538.431z"/>
<path fill="#E48C20" d="M1897.536,2533.808c-0.852,0-1.542,0.689-1.542,1.542v15.413c0-0.852,0.69-1.542,1.542-1.542
	s1.541,0.69,1.541,1.542v-15.413C1899.077,2534.497,1898.387,2533.808,1897.536,2533.808L1897.536,2533.808z"/>
<path fill="#E48C20" d="M1903.702,2536.891c-0.852,0-1.541,0.689-1.541,1.54v12.332c0-0.852,0.689-1.542,1.541-1.542
	c0.851,0,1.541,0.69,1.541,1.542v-12.332C1905.243,2537.58,1904.552,2536.891,1903.702,2536.891L1903.702,2536.891z"/>
<path fill="#E48C20" d="M1866.707,2533.808c-0.852,0-1.542,0.689-1.542,1.542v15.413c0-0.852,0.69-1.542,1.542-1.542
	c0.851,0,1.541,0.69,1.541,1.542v-15.413C1868.248,2534.497,1867.557,2533.808,1866.707,2533.808L1866.707,2533.808z"/>
</svg>
