<?xml version="1.0" encoding="utf-8"?>
<!-- Generator: Adobe Illustrator 14.0.0, SVG Export Plug-In  -->
<!DOCTYPE svg PUBLIC "-//W3C//DTD SVG 1.1//EN" "http://www.w3.org/Graphics/SVG/1.1/DTD/svg11.dtd" [
	<!ENTITY ns_flows "http://ns.adobe.com/Flows/1.0/">
]>
<svg version="1.1"
	 xmlns="http://www.w3.org/2000/svg" xmlns:xlink="http://www.w3.org/1999/xlink" xmlns:a="http://ns.adobe.com/AdobeSVGViewerExtensions/3.0/"
	 x="0px" y="0px" width="50px" height="50px" viewBox="-2 -2 50 50" enable-background="new -2 -2 50 50" xml:space="preserve">
<defs>
</defs>
<circle fill="#A9D004" cx="23" cy="23" r="23"/>
<path fill="#86C500" d="M46,23c0-0.902-0.054-1.792-0.154-2.668L34.049,8.536L21.982,25.799l-4.884-4.883l-7.506,3.36l2.047,8.936
	l12.792,12.743C36.467,45.216,46,35.222,46,23z"/>
<path fill="#FFFFFF" d="M27.246,5.778c-5.396,0-9.771,4.375-9.771,9.771c0,3.014,1.365,5.708,3.51,7.5v4.768l3.041-3.041
	c1.008,0.352,2.091,0.543,3.22,0.543c5.396,0,9.771-4.375,9.771-9.771C37.018,10.153,32.643,5.778,27.246,5.778z"/>
<path fill="#E6E6E6" d="M27.246,5.778c-0.02,0-0.04,0-0.06,0v19.541c0.02,0,0.04,0.001,0.06,0.001c5.396,0,9.771-4.375,9.771-9.771
	C37.018,10.153,32.643,5.778,27.246,5.778z"/>
<path fill="#007CB7" d="M24.521,28.339l-3.037,3.039c-3.239-1.558-5.867-4.186-7.424-7.425l3.039-3.038l-7.891-7.891l-4.074,4.074
	c0,12.816,10.389,23.205,23.205,23.206l4.074-4.075L24.521,28.339z"/>
<path fill="#00629D" d="M32.412,36.229l-7.892-7.891l-3.037,3.039c-1.463-0.704-2.8-1.626-3.972-2.724l-5.213,5.214
	c4.167,3.986,9.817,6.436,16.039,6.437L32.412,36.229z"/>
<circle fill="#ECA324" cx="22.708" cy="15.543" r="1.629"/>
<circle fill="#F5CF8C" cx="27.247" cy="15.543" r="1.629"/>
<path fill="#ECA324" d="M27.246,13.914c-0.02,0-0.04,0.002-0.06,0.003v3.252c0.02,0.001,0.04,0.003,0.06,0.003
	c0.9,0,1.629-0.729,1.629-1.629C28.875,14.643,28.146,13.914,27.246,13.914z"/>
<circle fill="#ECA324" cx="31.784" cy="15.543" r="1.629"/>
</svg>
